<svg id="Layer_1" data-name="Layer 1" xmlns="http://www.w3.org/2000/svg" xmlns:xlink="http://www.w3.org/1999/xlink" viewBox="0 0 1125.57 1114.3"><defs><style>.cls-1,.cls-4{fill:none;}.cls-2{clip-path:url(#clip-path);}.cls-3,.cls-5{fill:#e6e6e6;}.cls-4,.cls-5{stroke:#ccc;stroke-linecap:round;stroke-linejoin:round;stroke-width:4.14px;}.cls-6{fill:#333;}</style><clipPath id="clip-path" transform="translate(-835.68 4.59)"><rect class="cls-1" x="875.29" y="23" width="1044.74" height="1044.74"/></clipPath></defs><title>coming_soon main1</title><g class="cls-2"><path class="cls-3" d="M1199.47,464.61c2.91,2.75,5.8,7.14,9.49,8.7-5.47,10-10.67,23.49-16.47,33.27-11.67,19.67-27.56,34.13-50.63,39.13-20.4,4.43-39.87,2.52-57.91-8.71a46.21,46.21,0,0,1-4.56-3.6l0.19-.23a56,56,0,0,0,11.55-15.89c5.54-11.63,5.16-23.58,4.23-36.11-1.12-15-1.74-35.92-1.85-51,21.76,12.27,45.12,14.15,69.52,8.85a92.89,92.89,0,0,0,13.14-3.87l0.44,1.17c0,3.94-.55,9.58,2.19,12.81,1.28,1.51,3.33,2.28,5,3.3,1.9,1.15,3.74,2.39,5.54,3.7A104.6,104.6,0,0,1,1199.47,464.61Z" transform="translate(-835.68 4.59)"/><path class="cls-3" d="M1957.2,919.87c3.69,8.21,2.34,16.29-5.05,21.46-11.4,8-24.18,7.54-36.82,3.88a45.23,45.23,0,0,1-17.1-9.09l0.43-.51c1.12-1.34,2.34-2.59,3.32-4,8.47-12.36,20.71-18.88,34.89-21.94A17.91,17.91,0,0,1,1957.2,919.87Z" transform="translate(-835.68 4.59)"/><path class="cls-3" d="M1945.61,864.18c2.11,7.27-1.51,16.77-7.81,20.51-16.85,10-39.59,5.5-52.76-6.52l0.21-.23c5.9-7.22,11.39-14.81,19.76-19.6a51.69,51.69,0,0,1,23.07-6.84C1936.67,851,1943.82,858,1945.61,864.18Z" transform="translate(-835.68 4.59)"/><path class="cls-3" d="M1932.28,806.47c3.15,11.49-4.18,20.22-14.47,22.85-16.2,4.14-30.77,1-44.14-8.37l-0.74-.5a88.91,88.91,0,0,1,10.58-13.61c7.32-7.4,16.43-11.1,26.16-13.32C1920.51,791.05,1929.66,796.91,1932.28,806.47Z" transform="translate(-835.68 4.59)"/><circle class="cls-3" cx="1040.03" cy="289.92" r="4.81"/><path class="cls-3" d="M1826.31,450.53l-0.19,1.61a11,11,0,0,0-3.84.26c-19.37,4.68-36.77,10-56.06,13.42L1765,466c-4.09.68-8.18,0.68-12.27,1.36-5.22,1-10.25,2-15.18,2.89-11.17,2.09-21.87,4.23-33.21,8-1.28,0-2.29,1.06-3.2,2.37l-1.11-.86c-4-1.87-7.82.1-11.56,0.77-5.36.94-10.37,2.14-16.07,1.48l0.19-1.63c0.83-2.3,2.69-2.61,4.85-3.13,11.74-2.87,23.44-5.91,35.13-9l5.14-1.34c8-2.08,15.94-4.68,23.87-6.26,5.58-1.1,11.2-2.32,16.78-3.57,4.33-1,8.63-2,12.87-3,5.68-1.37,11.39-2.79,17.09-4.27q12-3.11,24-6.59c2-.57,3.52-1.14,4.25-3.12l0.31-1,0.39,0.12,1.45,0.5C1825.18,442,1825.43,442,1826.31,450.53Z" transform="translate(-835.68 4.59)"/><path class="cls-3" d="M1792.15,434.68a6.43,6.43,0,0,1,.44,3.61c-0.62,3.13-4,4.88-5.92,7.36l-1,0a13.22,13.22,0,0,0-2.65-.81c-6.13-1.42-12.12-3.48-18.19-5.16l-2.61-.69c-2.08-.53-5.1-1-6.58.6-5.5,6.08-12.6,11.13-14.13,20l0.08,1c-7.93,1.58-15.9,4.19-23.87,6.26l-5.14,1.34-0.34-1.33a10.58,10.58,0,0,1,2.37-5.55c5.28-6.55,9.81-13.74,15.42-20,9.37-10.41,19.45-20,35.29-18.45,3.25,0.32,6.36,1.49,9.76,1a9.66,9.66,0,0,1,5.62.94c3.37,1.61,6.12,4.65,9.61,6.05C1791.76,431.64,1791.65,433.41,1792.15,434.68Z" transform="translate(-835.68 4.59)"/><path class="cls-3" d="M1602.68,830.52l-0.3-.46c-3.3-2.87-7.14-1.15-10.61-.83a51.41,51.41,0,0,0-20.82,6c-1.87,1-3.43,2-4.29,4l0,1c-2.71-.11-5.42-0.17-8.13-0.07l0-.92c-1.7-3.9.77-6.43,3.43-8.13,14.54-9.31,30.23-14.14,47.75-12.2,15.92,1.77,30.82,7.29,45.81,12.25,14.83,4.9,29.67,9.64,44.95,12.87,20.73,4.39,41.51.46,62.27,0a4.58,4.58,0,0,0,1-.23l1.17-.71c0.52,0.86,1,1.73,1.57,2.59a23.4,23.4,0,0,1,2.34.32l-0.26,1.41c0.06,4,2.77,7.27,3.34,11.11,2,13.06-4.81,20.24-17.35,20.67-8.8.31-17.14-2.56-25.6-4.65-13.23-3.27-26.4-6.94-40-8.33a160.26,160.26,0,0,0-22.22-.63c-8.53.31-17-.51-24.7-5.48-5.51-3.54-11.53-7-18.74-5.46-4.88,1-8.9,3.78-13,6.3-3,1.82-5.71,4-8.72,5.74-5.12,3-5.52,2.83-10.12-1.41l-0.25-.2a6.38,6.38,0,0,0,1.21-3.66l-0.27-.85c-2.4.73-4.33-.44-5.43-3.52-0.69-1.92-2.24-2.64-3.48-3.82-2.09-2-2.08-4.12-.46-6.28a42.52,42.52,0,0,1,3.83-4.39C1591.24,837.78,1597,834.13,1602.68,830.52Z" transform="translate(-835.68 4.59)"/><path class="cls-3" d="M1720.5,379.26c7.46,0,12.2,4.06,12.2,10.36,0,6.14-4.92,10.36-12.2,10.36q-26.53,0-53.06,0v-1.83a120.92,120.92,0,0,0,.68-18.89l1.14,0c6.71,0,13.37-.61,20.14-0.17C1699.73,379.74,1710.13,379.24,1720.5,379.26Z" transform="translate(-835.68 4.59)"/><circle class="cls-3" cx="883.79" cy="973.2" r="4.81"/><path class="cls-3" d="M1693.63,540.89c0.12,5.54-3.63,8.9-7.3,12-6.19,5.23-13.36,8-21.67,6.83a2.6,2.6,0,0,1-.94,0,11.31,11.31,0,0,0-7.28-2.86l0-1.46c-0.32-3.16-.54-4.84-1.21-5.92,0,0,0,0,0,0q2.06-2.81,4.14-5.72c0.27-.54.57-1.08,0.88-1.63,5.22-4.15,11.68-4.26,18.85-1.63,4.41,1.61,8.61.38,12.87,0Z" transform="translate(-835.68 4.59)"/><path class="cls-3" d="M1631.59,377.48a5.34,5.34,0,0,1-.94-2.47,24.84,24.84,0,0,0-5.91-12.48c-0.43-.5-0.87-1-1.32-1.48-7.59-8-15.76-15.55-23.69-23.27l-0.62-.61q12.21-12.49,24.41-25c4-4.12,8.15-8.16,12.25-12.25-2.37-4.27-5.71-6.48-8.51-9.7-12.56,12.82-25.58,25-38.44,37.3l-0.68-.71-35.42-35.42c-4.27,2.37-6.48,5.7-9.75,8.54,10.41,10.41,20.5,20.45,30.51,30.56,1.82,1.84,4.28,3.24,4.9,6.08l0.52,0.53c-8.62,8.41-17.09,17-25.24,26l0.94,0.94-1.22,1.22c-2.5,3.7-4.81,7.44-3,12.2l0.13,0.8a9.59,9.59,0,0,1,3.51-1,17.15,17.15,0,0,0,9.39-4.29c1.62-1.32,3.12-2.81,4.54-4.22q10.71-10.63,21.26-21.41l0.82,0.8c6.71,6.7,13.14,13.73,20.21,20,1.08,1,2.2,1.89,3.35,2.75,5,3.73,10.65,6.36,17.3,6.5Zm36.53,1.79a120.92,120.92,0,0,1-.68,18.89V400h-141.5c-7.92,0-7.93,0-7.93-7.92V276.18c0-7.92,0-7.93,7.93-7.93h134.18c7.92,0,7.93,0,7.93,7.93q0,48.18,0,96.36C1668,374.78,1668.08,377,1668.12,379.27Zm-68.2-75.86c-2.65-3.08-5.23-6.2-9.94-5.89h-0.61c-5.34.46-5.34,0.46-10.36,6.1C1586.66,312.23,1592.09,312.23,1599.93,303.41Z" transform="translate(-835.68 4.59)"/><path class="cls-3" d="M1656.46,555.37l0,1.46a26.15,26.15,0,0,0-7.53,1.26c2.1-2.84,4.21-5.7,6.34-8.64C1655.92,550.53,1656.13,552.22,1656.46,555.37Z" transform="translate(-835.68 4.59)"/><path class="cls-3" d="M1620,566.48c5.69,6.07,5.65,7.61-.24,13.52-4.9,4.92-10.91,7.84-17.36,10.18-11.32,4.1-22.23,8.9-30.47,18.27-4.58,5.21-7.61,11.23-10.65,17.38-11.68,23.5-25.51,45.77-40.06,67.58-12.43,18.64-23.62,38.09-37.08,56.06-8,10.68-16.59,20.68-27.52,28.51-1.53,1.1-2.61,2.85-3.9,4.3l0,0.74c-2.94,0-5.54,1.5-8.25,3.06a68.94,68.94,0,0,1-21.35,8.05l-0.28.06-0.06-.33c-0.12-2.9-2.07-6-3.54-8.41-6.14-10.09-16.36-15.87-26.14-21.87-10.34-6.34-20.21-13.58-28.58-22.4-9.06-9.57-15.63-20.91-21.4-32.68-3-6.1-5.82-12.26-8.79-18.36-2.88-5.92-5.69-11.94-7-18.43-0.82-4-1.9-10.74,4.1-10.67,3,0,5.74,1.36,8.81,1.23a10.72,10.72,0,0,0,5.68-1.63c3.08-2.13,3.77-6.06,3.72-9.57-0.09-6.53-2.25-12.81-3.77-19.09-1.6-6.59-1.87-13.14,1.63-19.2a25.28,25.28,0,0,1,11.33-10.07c4.84-2.3,10.16-3.19,15.09-5.24a27.57,27.57,0,0,0,12.54-9.75c2.94-4.34,3.68-10.25.88-14.89-3-5-10.09-7.92-15.22-10-12.63-5.2-26.22-7.23-39.32-10.89l-17.47-7.31c1.23,0.45,2.5.85,3.81,1.21,14,3.84,26.11-.61,30.38-12.27,3.19-8.73,1.85-17.85-1.81-26.13-8-18-18.42-34.78-29.2-51.26-6.54-10-13.36-19.83-19.94-29.8q-1-1.52-2-3l1.23-.1c2.39-1.42,3.63-3.62,5-6,6.84-12.39,9.72-25.73,10.26-39.7,0.64-16.47,1-32.95,1.94-49.39,0.52-8.79,1.76-17.61,6-25.62,5.76-10.91,15.52-17.51,25.6-23.81,14.07-8.8,29.62-15.17,42.69-25.61,9.33-7.45,17.09-15.72,18.6-28.62,0.47-4-2.37-17.07-7.83-21.71C1416.16,215,1425.3,232.3,1427.2,253c0.6,6.54,2.08,13,3,19.52,1.38,10.23,5.72,19.12,11.58,27.47,4.27,6.09,3.25,8.79-3.63,11-5.87,1.85-6.59,3.31-6.16,9.15,0.79,10.78,3.67,21.28,2.65,32.34-1.83,20-11.14,26.87-30,27.42-7.52.22-15.2-.48-22.53,0.83-10.7,1.92-18.22,8.83-21.26,19.34-2.85,9.88.87,18.57,7.21,26.18,10.81,13,25.85,18,41.45,22,0.7,10.05-16.13,10-23,12-2.76,1.38-5.52,3.45-6.21,6.9-2.76,18.62-4.14,37.93,4.83,55.17,0.69,0.69,0,2.07.69,2.76,11,17.93,33.1,15.17,49.65,22.76s20,26.2,27.58,41.37c1.38,2.76,3.45,4.14,5.52,6.21,8.27,7.59,22.76,11,22.76,23.45,0.69,4.14-3.45,9-8.27,9.65-11.72,2.07-30.34-2.07-30.34,14.48,0,15.86,6.9,35.17-9,46.2-1.38.69-3.45,1.38-4.83,2.07-11,4.14-22.76,0-34.48,2.76a27,27,0,0,0-15.86,11.72c-6.9,11.72-6.9,26.89,4.83,35.86,6.21,4.83,13.79,6.9,21.38,7.59,12.41,0.69,22.07-7.59,30.34-15.86,2.07-2.76,4.83-5.52,6.9-8.27,31-42.75,60.68-77.92,90.33-122.05,4.83-7.59,9.65-14.48,14.48-22.07a7.79,7.79,0,0,1,.28-2.36l-0.17-.66,0.57-.14c9.56-2.5,19.28-4.16,28.94-6.1l0.1,0.63a5.34,5.34,0,0,0,6.25,4.65c6.16-1,12.38-2.46,16.44-8l-0.14-.74a8.55,8.55,0,0,0,1.54-.4,86.37,86.37,0,0,1,9.19-2.45ZM1434.86,597a4.81,4.81,0,1,0-4.81,4.81A4.81,4.81,0,0,0,1434.86,597Zm-26.47-308.15a4.81,4.81,0,1,0-4.81,4.81A4.81,4.81,0,0,0,1408.39,288.83Z" transform="translate(-835.68 4.59)"/><circle class="cls-3" cx="764.06" cy="689.34" r="4.81"/><path class="cls-3" d="M1592.24,939.66c8,7,8.94,12.82,5.26,21.2a34.56,34.56,0,0,0-2.64,18.24l-1.16.13a176.12,176.12,0,0,1-24.69,4.27c-8,.94-16.11,2-24,3.25-9.54,1.5-19.27,1.81-28.78,3.46l-0.23-1.32a27.25,27.25,0,0,1,1.46-2.41c11.38-15.27,13.06-31.82,7.39-49.78-1.88-6-6.37-10-8.85-15.4l0.23-1.43c1.51,0.28,3,.52,4.58.69,9.85,1,19.63,2.8,29.39,4.56l5.87,1.06c4.92,0.87,10,1.27,14.82,2.21,0.52,0.1,1,.2,1.57.32a56.06,56.06,0,0,0,15.87,1.57l0.1,1.17C1587.56,935.17,1589.7,937.44,1592.24,939.66Z" transform="translate(-835.68 4.59)"/><path class="cls-3" d="M1465.63,847c-1.7.35-2.58,1.79-3.7,2.87-6.08,5.83-13.32,7.56-21.22,5.22-7.74-2.28-12-7.74-13.67-15.82-1.93-9.19-1-18.36-1.29-27.55a75.47,75.47,0,0,0-2.45-16.89l-0.14-.69a68.94,68.94,0,0,0,21.35-8.05c2.72-1.56,5.31-3.05,8.25-3.06a9.35,9.35,0,0,1,3.38.65c1,0.38,2.23.06,3.36,0.06h90.28c1.49,1.56.94,3.51,0.94,5.31,0,15.45,0,30.9,0,46.35,0,1.61-.3,3.28.48,4.83l0.16,0.66c-6,1.43-11.15,9-10.76,15.2l-1,.07c-3.39,0-6.76,0-10.14,0-7.81-.14-15-2-20.76-7.72h-1.93c-8.49,10.61-25.45,11.18-33.4,5.43C1470.53,851.74,1468.49,849.06,1465.63,847Zm0.55-1.74a57.26,57.26,0,0,0,7.31-30.15,28.25,28.25,0,0,0-2.33-10.17c-1.1-2.54-2.71-4.08-5.39-4.28s-3.59,1.9-4.88,3.79c-2.94,4.31-3.23,9.39-3.1,14,0.25,9.41.7,19.11,8,26.56Zm42.56,0.26c11-12.77,12.3-37.55,2.4-46.35-4.12.19-5.94,2.74-7.83,6.21-5.9,10.79-4.82,31.78,3.5,40.14h1.93Z" transform="translate(-835.68 4.59)"/><path class="cls-3" d="M1530,881.7c0,4.19,0,7.41,0,10.63,0,5.3,0,5.3-5.31,5.31H1445.5c0-4.82,0-9.17,0-13.52a2.37,2.37,0,0,1,2.39-2.42H1530Z" transform="translate(-835.68 4.59)"/><path class="cls-3" d="M1524.83,936.69c5.68,18,4,34.51-7.39,49.78a27.25,27.25,0,0,0-1.46,2.41l0.23,1.32a78.68,78.68,0,0,0-8.92,2,7.78,7.78,0,0,1-1.92,0c-8.39.21-13.67-5-17.78-11.16-9.73-14.67-9.62-37.64,1-53.43,4-5.88,9.77-10.65,17.71-9.63,3.32,0.43,6.58,1.21,9.9,1.82l-0.23,1.43C1518.45,926.68,1522.94,930.73,1524.83,936.69Zm-9.31,39.17c8-10.47,7.67-30.83,0-41.57-2.74-3.86-6.43-5.59-10.69-6.72h-0.48c-9.38,3-15.32,11.83-16.08,21.71-0.65,8.52,0,16.52,4,24.16a18,18,0,0,0,6.77,7.25C1504.71,984.14,1510.49,982.4,1515.52,975.86Z" transform="translate(-835.68 4.59)"/><path class="cls-3" d="M1516,480.65c2.48,0,4,.37,3.91,3.41-0.17,6.11-.1,12.23,0,18.34,0,2.11-.41,3.44-2.92,3.41-6.28-.08-12.56,0-19.31,0,0-8,0-15.6,0-23.17a2,2,0,0,1,1.9-1.93H1500C1505.33,480.68,1510.65,480.76,1516,480.65Z" transform="translate(-835.68 4.59)"/><path class="cls-3" d="M1496.6,39c4.18,6.4,7,14.91,3.82,21-4.45,8.54-9.79,17.05-17,24.2-13.42,13.22-28.67,23.93-44.81,33.16-12.15,7-23.29,14.22-29.74,27.08l-1.63.85c-3.37-6.46-6.83-12.88-10.46-19.21-5.88-10.24-11.21-20.75-13.08-32.85-2.19-14.15-2.52-27.68,2.85-40.71a56.14,56.14,0,0,1,3.84-7.6c4.12-6.84,9.19-13.34,15.12-17.57,0.39-.28.79-0.55,1.19-0.81,16.18-10.48,34.59-15.34,54-10.63C1475.05,19.39,1488.12,26,1496.6,39Z" transform="translate(-835.68 4.59)"/><circle class="cls-3" cx="594.37" cy="601.58" r="4.81"/><path class="cls-3" d="M1422.33,903.92l-0.17,1.12c-0.58-.09-1.16-0.19-1.73-0.3a35.31,35.31,0,0,0-8.2-.48l0-.82a6.23,6.23,0,0,0-.52-2.39c-0.79-1.06-1.54-2.12-2.29-3.21-5.21-7.57-9.58-15.67-14.53-23.4-3.42-5.34-7.43-10.36-9.9-16.43a14.49,14.49,0,0,1,6.39-3c7.71,12,15.47,24.18,23.27,36.3C1417.27,895.49,1420.8,899.09,1422.33,903.92Z" transform="translate(-835.68 4.59)"/><circle class="cls-3" cx="567.91" cy="293.43" r="4.81"/><path class="cls-3" d="M1405.18,26.72l0.3,0.62c-5.93,4.23-11,10.73-15.12,17.57a56.14,56.14,0,0,0-3.84,7.6l-1.47-.17c-1.92-1.29-4.08-.55-6.1-0.57-10.78-.07-21.07-7.77-23.69-18.37-2.87-11.65,1.32-22,12.13-28.59C1376-.43,1388,2,1396.15,8.9,1401.91,13.79,1403,20.4,1405.18,26.72Z" transform="translate(-835.68 4.59)"/><path class="cls-3" d="M1393.37,818c4.08,4.37,4.54,11.77,1,16.43a12.88,12.88,0,0,1-16.42,3.86c-6.54-3.41-8.41-8.77-6.9-15.48,1.44-6.45,5.91-8.29,11.25-9.62h0.48C1387.08,813,1390.48,814.87,1393.37,818Z" transform="translate(-835.68 4.59)"/><path class="cls-3" d="M1231.68,542.42c-2.76-2-4.22-5.4-4-9.47,0.34-6.19,3.81-9.54,10.37-9.73,4.88-.14,9.85-0.61,14.61.14s6.55-1.21,7.29-5.05a30.09,30.09,0,0,0-.41-14.06c-2.3-8.36-3.36-16.91,1.65-25,3.42-5.51,7.61-6.31,12.27-2.48,3.39,2.79,4.38,6.46,4.81,10.43a93.46,93.46,0,0,0,5.53,23.78c6.08,15.67,15.53,27.88,31.49,33.58h0l17.47,7.31c13.09,3.65,26.69,5.69,39.32,10.89,5.13,2.11,12.23,5.06,15.22,10,2.79,4.64,2.06,10.55-.88,14.89a27.57,27.57,0,0,1-12.54,9.75c-4.94,2.05-10.25,2.94-15.09,5.24a25.28,25.28,0,0,0-11.33,10.07l-3.16-.77h-4.94c-32.53-8.28-65.92-3.52-99.31-4.88-3.41-.68-6.14-1.37-8.86-3.41-4.77-4.77-2-10.91.72-16.48l0.12-.73a11.63,11.63,0,0,1-9.2-11.47,9.22,9.22,0,0,1,6.28-8.9l-0.56-.86c-1.88-3.08-5.54-4.69-5.94-9.13-0.62-6.7,3.21-9.93,8.07-12.83Z" transform="translate(-835.68 4.59)"/><path class="cls-3" d="M1361.44,870.15c1.26,2.27.78,4.62-.88,6.74a22,22,0,0,1-7.32,6.13c-2.63,1.3-2.83,3-2.89,5.43-0.14,6,1.35,11.89.54,17.87-0.55,4-1.65,8.5-5,10.41a49,49,0,0,1-18.68,6.19c-7.92,1-16,1.14-23.72,4.06-9.55,3.62-18.38,8.65-27.43,13.21-12.79,6.44-25.56,13-38.33,19.43l-0.19.1-1.15.59-0.44-.88a166.85,166.85,0,0,1-20.71-29.89l0.92-.52c27.2-9.65,54.41-19.24,81.58-29,14-5,27.7-10.54,39.24-20.58a71.52,71.52,0,0,1,9.56-7.43,26.26,26.26,0,0,1,8.16-3.38C1357.31,868.08,1359.91,867.38,1361.44,870.15Z" transform="translate(-835.68 4.59)"/><path class="cls-3" d="M1328.27,141.4c2.43,10.27-3,19.35-11.5,22.05-10.13,3.2-22.55-6.64-19.1-22.1a49.46,49.46,0,0,1,13.58-25l1.15-1.25C1320.13,121.36,1325.71,130.54,1328.27,141.4Z" transform="translate(-835.68 4.59)"/><circle class="cls-3" cx="451.62" cy="805.22" r="4.81"/><path class="cls-3" d="M1277.72,145c0.9,8.43-3.52,15.89-11,18.29s-15-1.45-19-8.51c-3.18-5.71-2.07-11.49-.48-17.08,2.7-9.52,7.44-17.27,14.23-22.69l1.55,1.32C1272,123.86,1276.5,133.6,1277.72,145Z" transform="translate(-835.68 4.59)"/><path class="cls-3" d="M1013,699.33l0.43-.1c2.46-2.2,3-5.44,4.28-8.23,6.33-14,16.47-24.45,29.5-32.33s27.14-10.65,42-9.52c10,0.76,19.65,3.26,28.07,9.47,5.92,4.36,10.23,9.34,11.1,17a32.06,32.06,0,0,0,2.62,8.86l-0.74.32a7.3,7.3,0,0,0-2,3.85c-2,14.45-8.16,26.6-20.23,35.23q-17.75,12.7-35.73,25.1c-11.55,7.94-21.41,17.25-26,30.93a38.73,38.73,0,0,0-2,10.68l-1.37-.08a32.12,32.12,0,0,1-2.87-3.88q-9-16.86-17.87-33.79a118.7,118.7,0,0,1-9.19-24.13,27,27,0,0,0-4.38-9.63c-3.05-4-7.27-5.55-11.07-4.36-4.94,1.54-7,4.7-7.27,10.62-0.47,9.86,1.61,19.43,3.5,28.95,3.54,17.88,6.79,35.75,6.19,54.09-0.56,17.25-6.36,32.36-18.41,44.84-2.52,2.61-5.71,4.6-8.65,6.8-1.26.94-2.54,2.19-4.33,1l-1.28-.5a22.57,22.57,0,0,0,2.05-3.21c7.85-14.88,9.44-30.19,5.8-46C972,797.69,964.4,785.82,958,773.55c-9.58-18.27-16.62-37.26-16-58.39,0.75-25.65,20.47-37.17,41.55-36.7,11.7,0.27,19.52,6.74,25.55,16C1010.19,696.16,1011.94,697.56,1013,699.33Z" transform="translate(-835.68 4.59)"/><path class="cls-3" d="M1095.36,481.17c0.93,12.54,1.31,24.48-4.23,36.11a56,56,0,0,1-11.55,15.89l-0.19.23-0.29-.23c-7.81-7.43-14-17.09-16.09-28.12-2.76-22.07-3.45-43.44-4-65.61l-0.45-1.19a75.38,75.38,0,0,0,24.62-14.47l0.61-.61a66.88,66.88,0,0,0,6.12,4.84q1.81,1.13,3.64,2.15C1093.62,445.25,1094.25,466.13,1095.36,481.17Z" transform="translate(-835.68 4.59)"/><circle class="cls-3" cx="247.26" cy="103.8" r="4.81"/><path class="cls-3" d="M1061.72,1011.32v9.9H992.57v-9.9h69.15Z" transform="translate(-835.68 4.59)"/><path class="cls-3" d="M995.58,941.13c4.81,0.5,8.89,5.74,8.7,10.57-0.22,5.67-4.33,10.23-9.65,10.61-6.75.48-13-.94-18.36-5.28-1.35-1.08-2.88-2-4.33-2.92l-0.7-.25C975.77,944.43,985.42,940.07,995.58,941.13Z" transform="translate(-835.68 4.59)"/><path class="cls-3" d="M1004.24,916.95c0.14,5.5-4.71,10.89-10.11,11a32.38,32.38,0,0,1-14.55-3.17c-3.56-1.62-5.61-5-9.1-6.43l-0.46-.32c5.88-8.25,13.87-11.83,24.11-11.62C1000.28,906.58,1004.08,910.87,1004.24,916.95Z" transform="translate(-835.68 4.59)"/><circle class="cls-3" cx="114.5" cy="653.49" r="4.81"/><path class="cls-3" d="M931.86,468c1.17,0.88,1,2.17,1,3.38-0.88,24.86-1.59,49.74-5.79,74.34-0.32,1.87-.5,3.82-1.92,5.31l-0.52,1.43a31.93,31.93,0,0,1-16.72-15c-10.34-20.69-3.45-44.13,11.72-60.68,1.38-.69,2.07-2.07,3.45-3.45a51.1,51.1,0,0,0,7-5.4Z" transform="translate(-835.68 4.59)"/><path class="cls-3" d="M897.73,340.83c1.48,1.12,1.27,2.74,1.21,4.27-1.12,31.41-2,62.84-7.32,93.93-0.4,2.37-.63,4.83-2.43,6.71l-1.44.77a42,42,0,0,1-6.47-3.24c-6.32-3.88-11.92-9-14.5-15.88-6.78-18-5.23-36.15,2.39-53.57A77.66,77.66,0,0,1,896,340.95l0.27-.19Z" transform="translate(-835.68 4.59)"/><path class="cls-4" d="M1768.68,221.9c18.6-6.83,37.08-14,55.81-20.4l4-1.37c6.7-2.25,14.15-3,21.28-3.1,18.83-.31,33.8,8.53,47,21.18,13,12.47,22.47,27.53,31.62,42.76,8.91,14.83,17.15,30.05,25.71,45.08A39.17,39.17,0,0,1,1959,320.7c0.7,5.65-2.73,9.69-8.54,9.72-4.07,0-8.14-.23-12.2-0.59-10.8-1-16.44,6.68-14.69,18.34,1,6.59,3.33,12.74,5.62,18.87,4,10.56,2.28,20.6-1.93,30.52-5.83,13.73-15.84,24.48-25.61,35.37-8.08,9-16.6,17.65-23.77,27.46-5.9,8.1-2.08,16.57,7.92,17.71,1.43,0.17,3,.32,4.28.4,4.79,0.28,10-.17,12.65,4.54a25.89,25.89,0,0,1,2.74,17c-1.34,8.76-4.72,16.93-6.28,25.59-1.49,8.27,0,16.17,3.11,23.77,3.37,8.12,10.85,9.66,18.26,9.61,10.27-.06,16.44,4.94,20.77,13.56a23.24,23.24,0,0,1-2.09,24.86c-11.93,16.41-28.89,24.12-49.16,22.55-10.68-.83-18.94-7.22-26.34-15-8.85-9.27-13.58-20.87-19.31-31.86-7.69-14.73-15.75-28.93-30.6-37.77a68.84,68.84,0,0,0-32.33-9.77c-22-1.06-41.48,5.43-59.2,18.27-12.25,8.88-19.74,21-25,34.81-9.45,25-11.59,51-11,77.46" transform="translate(-835.68 4.59)"/><path class="cls-4" d="M1408.84,144.44c6.45-12.86,17.59-20.13,29.74-27.08,16.14-9.23,31.39-19.94,44.81-33.16,7.24-7.14,12.58-15.65,17-24.2,3.19-6.13.36-14.64-3.82-21-8.48-13-21.55-19.57-36-23.07-19.38-4.7-37.8.15-54,10.63-0.4.26-.8,0.53-1.19,0.81-5.93,4.23-11,10.73-15.12,17.57a56.14,56.14,0,0,0-3.84,7.6c-5.37,13-5,26.56-2.85,40.71,1.87,12.1,7.2,22.61,13.08,32.85,3.63,6.33,7.09,12.75,10.46,19.21,6.3,12.08,12.32,24.31,18.63,36.39,20.15,38.51,39.93,77.22,59.83,115.85,2.5,4.85,4.56,10,7.4,14.59,5.53,9,2.77,19.12-12.27,18.3-12.05-.66-16.91,4-17.8,15.89-1.1,14.69-2.14,29.33.74,43.92,4.65,23.58,13.52,36.29,37.18,42.08,8.39,2.05,16.76,4.1,25,6.59" transform="translate(-835.68 4.59)"/><path class="cls-4" d="M1247.82,347.54c-5.16-2-7.77-6.94-11.43-10.53-15.57-15.27-34.4-24.69-54.46-32.14-12.07-4.49-24-9-34.8-16.43-16.38-11.29-25.83-26.62-26.6-46.42-0.49-12.54,2.64-24.87,7.2-36.55,9.31-23.89,19.65-47.39,28.4-71.46,6.57-18.09,10.19-36.84,3.3-56.06C1153,60.06,1141,46.56,1125.1,37.3c-24.93-14.49-51.37-17.37-78.56-5.71C1030.59,38.43,1020,51,1011.22,65.18c-11.45,18.51-21.47,37.82-31.13,57.31-4.42,8.92-3.11,16.06,3.69,19.39,2.29,1.12,5.22,1.08,7.87,1.3,2.42,0.2,4.89-.1,7.32.07,6.43,0.43,9.67,3.92,9.75,10.34,0,2.65-.72,9.16-4,18.8-2.78,8.28-13.17,17.21-8.67,31.22s28.51,33.59,30.33,45.75-0.66,28.7-9.73,36c-15.34,12.35-33.64,18.22-51.85,24.42-6.94,2.36-14.15,3.92-20.8,7.19-1.56.76-3.62,0.49-5.45,0.69" transform="translate(-835.68 4.59)"/><path class="cls-4" d="M1667.44,398.16a120.92,120.92,0,0,0,.68-18.89c0-2.24-.08-4.49-0.08-6.73q0-48.18,0-96.36c0-7.92,0-7.93-7.93-7.93H1525.94c-7.92,0-7.93,0-7.93,7.93V392.06c0,7.92,0,7.92,7.93,7.92h141.5q26.53,0,53.06,0c7.27,0,12.2-4.22,12.2-10.36,0-6.3-4.74-10.35-12.2-10.36-10.37,0-20.77.48-31.09-.18-6.77-.43-13.43.12-20.14,0.17" transform="translate(-835.68 4.59)"/><path class="cls-4" d="M1083.14,423.78a75.38,75.38,0,0,1-24.62,14.47,135,135,0,0,1-25.4,6.24,339.42,339.42,0,0,1-51.23,3.72c-25.71.15-49.49,6.89-70.07,22.64-12.73,9.74-21.55,23-30,36.44-14.05,22.3-24.8,46.39-38.2,69.05-2.79,4.72-4.39,10.37-5.5,15.8-2,9.63,5,17.21,15.73,17.63,3.86,0.16,7.76-.32,11.58.1,10,1.07,15.9,7.92,15.14,18.22-0.59,8-.27,15.87-0.5,23.8" transform="translate(-835.68 4.59)"/><path class="cls-4" d="M1257.58,359.13c2.68-1.39,5.79-1,8.51-1.92,10.1-3.29,16.05-12.54,16.58-23.69,0.57-12-1.41-23.65-3.17-35.37-2.71-18.18-3.77-36.53,1.44-54.23,9.08-30.8,31.05-47.84,62-53.67,20.67-3.89,40.53-.28,57.1,12.42C1416.16,215,1425.3,232.3,1427.2,253c0.6,6.54,2.08,13,3,19.52,1.38,10.23,5.72,19.12,11.58,27.47,4.27,6.09,3.25,8.79-3.63,11-5.87,1.85-6.59,3.31-6.16,9.15,0.79,10.78,3.67,21.28,2.65,32.34-1.83,20-11.14,26.87-30,27.42-7.52.22-15.2-.48-22.53,0.83-10.7,1.92-18.22,8.83-21.26,19.34-2.85,9.88.87,18.57,7.21,26.18,10.81,13,25.85,18,41.45,22" transform="translate(-835.68 4.59)"/><path class="cls-4" d="M1315.31,544.57c-16-5.7-25.42-17.91-31.49-33.58a93.46,93.46,0,0,1-5.53-23.78c-0.43-4-1.42-7.63-4.81-10.43-4.65-3.83-8.85-3-12.27,2.48-5,8.07-4,16.62-1.65,25a30.09,30.09,0,0,1,.41,14.06c-0.74,3.84-2.65,5.78-7.29,5.05s-9.74-.28-14.61-0.14c-6.56.19-10,3.54-10.37,9.73-0.23,4.08,1.23,7.44,4,9.47a11.15,11.15,0,0,0,5.77,2.05,40.54,40.54,0,0,1,10.36,1.89" transform="translate(-835.68 4.59)"/><path class="cls-4" d="M1259.41,113.94c-8.74-7.14-19.13-8.85-29.89-8.46-16.32.6-31.8,4.24-42.61,17.69-13.18,16.4-18.71,35-13.49,56,3.32,13.38,12.58,20.27,25.62,22.49,6,1,12.25.94,18.27,2,9,1.57,15.29,8.34,17.14,17.6,2.68,13.41.6,26.52-1.87,39.65-1.72,9.14-5.16,17.94-4.91,27.45,0.26,9.89,3.66,13.41,13.45,13.41,2.44,0,4.88-.06,7.32,0,14.47,0.4,16.27,9.64,13.27,19.46-3.08,10-8.45,19.12-14.14,28l1.41,1.41q4.22,4.32,8,9c9.37,11.52,16.8,24.27,23.81,37.29,4.87,9,10.26,17.75,15.86,26.32q1,1.53,2,3c6.58,10,13.39,19.8,19.94,29.8,10.78,16.48,21.22,33.22,29.2,51.26,3.66,8.28,5,17.4,1.81,26.13-4.28,11.67-16.38,16.12-30.38,12.27-1.31-.36-2.59-0.76-3.81-1.21" transform="translate(-835.68 4.59)"/><path class="cls-4" d="M961.77,166.4c-18,1.61-25.8-.9-42.71,6.67-8.32,3.72-16.06,8.19-21.91,15.32-3.43,4.19-4.53,9.41-5.53,14.61-3.42,17.78-1.89,35.42,1.2,53.07,4.48,25.62,8,51.32,6.81,77.46-0.14,3.11-.65,5.22-3.38,7.24l-0.27.19a77.66,77.66,0,0,0-26.82,32.86c-7.61,17.42-9.16,35.53-2.39,53.57,2.59,6.89,8.18,12,14.5,15.88a42,42,0,0,0,6.47,3.24c12.71,5,27,3.44,36.21-4.43,10.48-8.92,16.29-20.56,20.18-33.53,5.61-18.67,2.1-36.77-2.48-54.92-3.17-12.6-5.34-25.43-4.1-38.4,0.6-6.19,3.37-12.11,6.46-17.74,8.5-15.45,8.7-32.08,5.28-48.71-1.08-5.28-3.08-10.47-4-15.9-2.34-13.26,1.9-16.85,15.27-16.4a49.47,49.47,0,0,1,10.36,1.81c5.26,1.33,9.72.3,13.43-3.71" transform="translate(-835.68 4.59)"/><path class="cls-4" d="M1861.39,363.4c-8.18-3.63-13.85-10.54-20.69-15.91-19.33-15.16-34.6-34.53-52.57-51.1-9.74-9-20.92-15.73-34.69-16.53-19.66-1.15-37.13,4.5-51.81,17.71-17.3,15.58-24.6,35.83-26.26,58.51-0.23,3.25-.41,6.51-0.61,9.76-0.26,4.15.71,7.79,4.27,10.36" transform="translate(-835.68 4.59)"/><path class="cls-4" d="M1400.08,202.66c5.46,4.63,8.3,17.69,7.83,21.71-1.51,12.89-9.27,21.17-18.6,28.62-13.07,10.44-28.62,16.81-42.69,25.61-10.09,6.3-19.84,12.9-25.6,23.81-4.23,8-5.48,16.83-6,25.62-1,16.45-1.3,32.93-1.94,49.39-0.54,14-3.42,27.31-10.26,39.7-1.34,2.43-2.59,4.63-5,6" transform="translate(-835.68 4.59)"/><path class="cls-4" d="M1780.26,464.56c3.17,2.14,6.57,6.23,4.53,9.65-6.14,15.67-25.22,19.08-39.53,25.22-10.22,4.09-19.08,9.54-25.89,18.4-10.91,14.32-17,29.31-25.22,45-10.91,18.4-21.13,36.8-33.29,53.84" transform="translate(-835.68 4.59)"/><path class="cls-4" d="M1297.83,426.82c-8.41,9.61-77.07,41.44-88.88,46.48" transform="translate(-835.68 4.59)"/><path class="cls-4" d="M1247.82,351.81c-6.91,12.61-13.47,25.42-20.81,37.77-12.42,20.92-28.62,37.18-50.83,45.57A92.89,92.89,0,0,1,1163,439c-24.4,5.3-47.76,3.41-69.52-8.85q-1.83-1-3.64-2.15a66.88,66.88,0,0,1-6.12-4.84" transform="translate(-835.68 4.59)"/><path class="cls-4" d="M1885.24,877.93c5.9-7.22,11.39-14.81,19.76-19.6a51.69,51.69,0,0,1,23.07-6.84c8.61-.52,15.76,6.5,17.54,12.69,2.11,7.27-1.51,16.77-7.81,20.51-16.85,10-39.59,5.5-52.76-6.52l-0.41-.38c-15.32-14.39-19.91-31.38-13.65-51.37a18.67,18.67,0,0,1,1-2.87,26.94,26.94,0,0,1,1.68-2.61c13.37,9.36,27.94,12.52,44.14,8.37,10.3-2.63,17.63-11.36,14.47-22.85-2.62-9.56-11.77-15.41-22.62-12.94-9.73,2.21-18.83,5.92-26.16,13.32a88.91,88.91,0,0,0-10.58,13.61v0c-9.3-8.74-15.4-18.8-17.37-31.67-2-13.23-3.19-26.58-7.25-39.53-8.37-26.64-26.31-43.84-51.59-54.14a130.86,130.86,0,0,0-51.55-9.65" transform="translate(-835.68 4.59)"/><path class="cls-4" d="M1655.25,549.46c-2.13,2.94-4.24,5.8-6.34,8.64-6.46,8.72-12.84,17.19-19.5,26.52-9.5,12-19,22.88-27.9,34.54q-1,1.33-2,2.69" transform="translate(-835.68 4.59)"/><path class="cls-4" d="M1873.28,432.24c0.11,9.26-8.74,16.07-16.25,20.16-6.13,2.72-12.27,5.45-19.08,3.41-4.14-1-7.89-3.25-11.83-3.66a11,11,0,0,0-3.84.26c-19.37,4.68-36.77,10-56.06,13.42L1765,466c-4.09.68-8.18,0.68-12.27,1.36-5.22,1-10.25,2-15.18,2.89-11.17,2.09-21.87,4.23-33.21,8-1.28,0-2.29,1.06-3.2,2.37-0.54.78-1.06,1.63-1.57,2.41-6.14,12.94-15,22.49-23.18,34.75-2.72,4.77-6.13,8.18-8.18,13a29.91,29.91,0,0,1-4.09,4.77c-1.1,2.18-2.62,4.36-3.89,6.55-0.31.54-.61,1.08-0.88,1.63q-2.08,2.92-4.14,5.72" transform="translate(-835.68 4.59)"/><path class="cls-4" d="M1232,587.23c-2.77,5.57-5.5,11.71-.72,16.48,2.72,2,5.45,2.72,8.86,3.41,33.39,1.36,66.78-3.41,99.31,4.88h4.94l3.16,0.77" transform="translate(-835.68 4.59)"/><path class="cls-4" d="M1311.25,116.38a49.46,49.46,0,0,0-13.58,25c-3.45,15.46,9,25.3,19.1,22.1,8.54-2.7,13.92-11.78,11.5-22.05-2.57-10.86-8.14-20-15.87-26.27-8.93-7.19-20.73-10.43-34.05-7.73a39,39,0,0,0-16.84,7.66c-6.79,5.41-11.52,13.17-14.23,22.69-1.59,5.59-2.7,11.37.48,17.08,3.92,7.05,11.43,10.92,19,8.51s11.89-9.87,11-18.29c-1.22-11.45-5.7-21.19-14.65-28.67" transform="translate(-835.68 4.59)"/><path class="cls-4" d="M1885.79,880.06a41,41,0,0,0-1.88,34.89c3.3,8.56,8,15.74,14.31,21.17a45.23,45.23,0,0,0,17.1,9.09c12.63,3.65,25.42,4.09,36.82-3.88,7.39-5.17,8.74-13.25,5.05-21.46a17.91,17.91,0,0,0-20.32-10.21c-14.18,3.06-26.42,9.58-34.89,21.94-1,1.43-2.21,2.68-3.32,4" transform="translate(-835.68 4.59)"/><path class="cls-4" d="M1405.18,26.72c-2.23-6.32-3.27-12.94-9-17.83C1388,2,1376-.43,1367.39,4.82c-10.81,6.62-15,16.94-12.13,28.59,2.61,10.6,12.9,18.3,23.69,18.37,2,0,4.18-.72,6.1.57" transform="translate(-835.68 4.59)"/><path class="cls-4" d="M897.73,340.83c1.48,1.12,1.27,2.74,1.21,4.27-1.12,31.41-2,62.84-7.32,93.93-0.4,2.37-.63,4.83-2.43,6.71" transform="translate(-835.68 4.59)"/><path class="cls-4" d="M1700.06,479.81c-4-1.87-7.82.1-11.56,0.77-5.36.94-10.37,2.14-16.07,1.48L1672,482c-5.27-.69-11,1.5-16.41,2.73-12,2.72-24,5.65-36,8.5" transform="translate(-835.68 4.59)"/><path class="cls-4" d="M1786.67,445.66c1.93-2.48,5.3-4.23,5.92-7.36a6.43,6.43,0,0,0-.44-3.61c-0.5-1.27-.39-3-1.84-3.62-3.48-1.4-6.23-4.45-9.61-6.05a9.66,9.66,0,0,0-5.62-.94c-3.39.46-6.51-.72-9.76-1-15.84-1.56-25.91,8-35.29,18.45-5.61,6.23-10.14,13.43-15.42,20a10.58,10.58,0,0,0-2.37,5.55" transform="translate(-835.68 4.59)"/><path class="cls-4" d="M1500.93,60.88c5,4.62,4.57,11.38,6.56,17.13,3.79,11,6.39,22.4,12.93,32.3,2.2,3.34-.28,7.19-4.85,7.9-10.74,1.68-10.72,1.68-9.16,12.81a108.18,108.18,0,0,1,.52,21.95c-0.78,12.33-8.36,20.6-21.26,23.73a75.34,75.34,0,0,1-11.56,2c-15.8,1.34-18.76,15.36-13.94,28.5,3.21,8.74,10.7,12.75,19.42,14.67a77.9,77.9,0,0,0,17.07,1.88c28.26-.1,56.52,0,84.78-0.11,7.91,0,15.79-.91,23.18-4.2,8.16-3.62,14.21-11.68,10.43-23.21-1.84-5.62-6.07-8.05-11.06-9.7-6.61-2.17-13.76-3.54-19.39-7.52-10.38-7.33-13.43-18.06-11.05-30.33,1.5-7.75,4.24-15.22,5-23.18,0.3-3.31.67-6.48-.07-9.78-1.63-7.25-3.75-9.16-11-9.11-2.85,0-5.69.46-8.54,0.57-5.58.2-8.28-2.41-8.56-7.91A30.12,30.12,0,0,1,1554,84c8.27-16.4,15.25-33.44,24.42-49.39,10.17-17.69,23.92-31,44.55-35.32,25.92-5.45,48.72,1.23,68.27,18.88,21.12,19.07,23.63,43,17,68.87-5.05,19.72-13.94,38.09-21.95,56.71-11.15,25.91-3,49,17.18,64a76.72,76.72,0,0,0,48.77,15.78c5.3-.13,10.57-1.52,15.86-2.34" transform="translate(-835.68 4.59)"/><path class="cls-4" d="M961.77,166.4c4.35,2.79,4.73,6.29,1.5,10.43-8.4,1.12-17.29.32-25.93,2.9-8.36,2.5-16.76,4.62-23.13,11.1-1,1-2.05.38-3.08,0.59" transform="translate(-835.68 4.59)"/><path class="cls-4" d="M984.34,214.58a79.16,79.16,0,0,0-3.41-11h-1.46c-7.12,0-14.54-.1-22,0a49.27,49.27,0,0,0-28.67,9.12" transform="translate(-835.68 4.59)"/><path class="cls-4" d="M1718.67,315.82c-7.63,11.9-11.47,25.07-12.74,39-0.26,2.83-.93,6.07,1.21,8.47,1.48,1.66,3.7,3.66,6,2.38,3-1.72,6.62-3.07,6.87-7.81a83.82,83.82,0,0,1,7.16-28.7c1.56-3.63,3.12-7.1,6.16-9.73" transform="translate(-835.68 4.59)"/><path class="cls-4" d="M979.46,203.6c-1-10.42-3.72-13.5-15.28-13.87l-1.19,0c-13.35-.21-26.49,1.68-38.41,8.44a24.77,24.77,0,0,0-3.06,2.41" transform="translate(-835.68 4.59)"/><path class="cls-4" d="M1706.48,312.16c-4.27,5.64-6.69,12.61-10.71,18-8.63,11.66-9,24.9-10.51,38.08-0.38,3.34-1.3,5.86-3.79,7.92" transform="translate(-835.68 4.59)"/><path class="cls-4" d="M1816.55,440.17c-0.73,2-2.27,2.55-4.25,3.12q-11.92,3.49-24,6.59c-5.7,1.48-11.41,2.9-17.09,4.27-4.23,1-8.54,2-12.87,3-5.58,1.26-11.2,2.47-16.78,3.57-7.93,1.58-15.9,4.19-23.87,6.26l-5.14,1.34c-11.7,3-23.4,6.09-35.13,9-2.17.52-4,.83-4.85,3.13" transform="translate(-835.68 4.59)"/><path class="cls-4" d="M1546.06,381.69a17.69,17.69,0,0,1,4.41-3.47,9.59,9.59,0,0,1,3.51-1,17.15,17.15,0,0,0,9.39-4.29c1.62-1.32,3.12-2.81,4.54-4.22q10.71-10.63,21.26-21.41,5-5.08,10-10.18,12.21-12.49,24.41-25c4-4.12,8.15-8.16,12.25-12.25-2.37-4.27-5.71-6.48-8.51-9.7-12.56,12.82-25.58,25-38.44,37.3q-5,4.76-9.92,9.58c-8.62,8.41-17.09,17-25.24,26l0.94,0.94,7.93,7.93" transform="translate(-835.68 4.59)"/><path class="cls-4" d="M1694.89,335.34c2.22,2.92.28,6.1,0.56,9.15,0.44,4.86-.5,9.79.65,14.64,1.31,5.5,4.3,6.83,9.77,4.27" transform="translate(-835.68 4.59)"/><path class="cls-4" d="M1787.89,448.1a4.19,4.19,0,0,0-2.2-2.39,13.22,13.22,0,0,0-2.65-.81c-6.13-1.42-12.12-3.48-18.19-5.16l-2.61-.69c-2.08-.53-5.1-1-6.58.6-5.5,6.08-12.6,11.13-14.13,20" transform="translate(-835.68 4.59)"/><path class="cls-4" d="M1824.48,440.77a1.23,1.23,0,0,0,.59,0c7.31-11.77,17.8-13.49,29.88-9.06,6.06,2.23,11.83.17,17.72-.13,1.62-.08,2.26-1.76,3-3" transform="translate(-835.68 4.59)"/><path class="cls-4" d="M1599.74,337.78c7.93,7.72,16.09,15.23,23.69,23.27,0.45,0.48.89,1,1.32,1.48a24.84,24.84,0,0,1,5.91,12.48,5.34,5.34,0,0,0,.94,2.47c1,1.43,2.53,2.22,3.52,3.61" transform="translate(-835.68 4.59)"/><path class="cls-4" d="M1588.15,326.8l-35.42-35.42c-4.27,2.37-6.48,5.7-9.75,8.54,10.41,10.41,20.5,20.45,30.51,30.56,1.82,1.84,4.28,3.24,4.9,6.08" transform="translate(-835.68 4.59)"/><path class="cls-4" d="M1590,348.15c6.71,6.7,13.14,13.73,20.21,20,1.08,1,2.2,1.89,3.35,2.75,5,3.73,10.65,6.36,17.3,6.5" transform="translate(-835.68 4.59)"/><path class="cls-4" d="M1819,438.95a8,8,0,0,1,1.25-2.41c3-2.7,4.31-6.05,2.93-9.76-1.73-4.67-5.86-5.19-10.28-4.94q-5.21.3-10.43,0.53c-5.26.25-10.53,0.47-15.8,0.72a6.63,6.63,0,0,0-4.27,1.83" transform="translate(-835.68 4.59)"/><path class="cls-4" d="M1338.08,106c-8.88,1.38-17.95,2.3-24.39,9.76" transform="translate(-835.68 4.59)"/><path class="cls-4" d="M1230.74,543.32c-4.86,2.9-8.7,6.12-8.07,12.83,0.41,4.44,4.06,6.05,5.94,9.13" transform="translate(-835.68 4.59)"/><path class="cls-4" d="M1247.82,567.11c-4.07-.61-8.12-1.4-12.2-1.79a14.14,14.14,0,0,0-6.45.81,9.22,9.22,0,0,0-6.28,8.9,11.63,11.63,0,0,0,9.2,11.47,12.12,12.12,0,0,0,3.55.26c4-.31,8.12.68,12.18,1.08" transform="translate(-835.68 4.59)"/><path class="cls-4" d="M1766.54,467.61c-5.12,7-13,8.9-20.77,10.14a6.75,6.75,0,0,1-7.9-5.87" transform="translate(-835.68 4.59)"/><path class="cls-4" d="M1562.54,329.24c-0.81,0-2.34-.06-2.34,0-0.45,5.67-4,10.35-5,15.85" transform="translate(-835.68 4.59)"/><path class="cls-4" d="M1764.71,441.39c-2.34,4.63-6.57,8.34-6.71,14" transform="translate(-835.68 4.59)"/><path class="cls-4" d="M1553.39,365.23c-2.5,3.7-4.81,7.44-3,12.2" transform="translate(-835.68 4.59)"/><path class="cls-4" d="M1536.92,330.46c0.92,4.36,2.57,8.33,6.1,11.29" transform="translate(-835.68 4.59)"/><path class="cls-4" d="M1805,435.29c3.33,3.1,7.93,2.64,11.9,3.89l0.39,0.12,1.45,0.5c6.48,2.19,6.72,2.2,7.61,10.74" transform="translate(-835.68 4.59)"/><path class="cls-4" d="M1589.37,297.52c-5.34.46-5.34,0.46-10.36,6.1,7.65,8.61,13.08,8.61,20.92-.21-2.65-3.08-5.23-6.2-9.94-5.89" transform="translate(-835.68 4.59)"/><path class="cls-4" d="M1802.53,423.7c1.2,2.94,3.79,5.36,2.5,9.16a16.31,16.31,0,0,1-1,2.39c-1.72,3.3-4.28,3.94-10.66,3.08" transform="translate(-835.68 4.59)"/><path class="cls-4" d="M1624.14,363.4c-2.55,2.79-6.62,3.8-8.54,7.32" transform="translate(-835.68 4.59)"/><path class="cls-4" d="M1547.28,334.73c-2.25,4-5.39,7.69-4.27,12.81" transform="translate(-835.68 4.59)"/><path class="cls-4" d="M964.21,177.37c5.88,3.86,2.17,7.72,0,11.58" transform="translate(-835.68 4.59)"/><path class="cls-4" d="M1633.89,328c-0.3,2.52,1.2,5.79-1.87,7.23-4.7,2.21-3.35,6.23-3.62,9.84" transform="translate(-835.68 4.59)"/><path class="cls-4" d="M1645.49,330.46c-0.76,2.17-.06,4.73-3,6.21-3.57,1.79-1,5.63-1.89,8.43" transform="translate(-835.68 4.59)"/><path class="cls-4" d="M1590,285.33c0.2,6.52,1.61,7.54,6.71,4.88" transform="translate(-835.68 4.59)"/><path class="cls-4" d="M1078.61,533.65c-11.28,10.07-25.1,14.09-39.59,16.38A267.62,267.62,0,0,1,998.48,553c-20.36.12-39.17,5.45-55.46,17.91-10.07,7.72-17.06,18.18-23.78,28.84-11.12,17.65-19.63,36.73-30.23,54.66a40.92,40.92,0,0,0-4.36,12.51c-1.57,7.62,4,13.61,12.45,14,2.41,0.1,4.83,0,7.24,0,9.63,0.22,15.73,7,13.9,16.38-2.71,13.92-4.1,28-6,42-1.32,9.85-2,19.87.15,29.93,2.25,10.35,8.1,16.52,18,19.87,6.32,2.14,12.74,4.13,18.44,8,7.22,4.91,9.23,12.14,9,19.87-0.5,15.34-8.43,27.86-16.76,40.06-11.85,17.38-25.27,33.69-36,51.77-7,11.78-11.7,24.74-8.34,39,2.08,8.81,6.74,16.32,12.52,23.18,8.83,10.47,19.78,18.85,28.94,29,6.32,7,12.16,14.29,15.09,23.6,1.89,6,.79,11.41-2.14,16.38-3.29,5.59-9.17,6-14.85,5.3-9.91-1.28-12.4,4.28-14,11.67-1.2,5.57-.1,11.26,1.61,16.34,3.48,10.32,4,20.78,3.67,31.44" transform="translate(-835.68 4.59)"/><path class="cls-4" d="M1409.44,448.19c0.7,10.05-16.13,10-23,12-2.76,1.38-5.52,3.45-6.21,6.9-2.76,18.62-4.14,37.93,4.83,55.17,0.69,0.69,0,2.07.69,2.76,11,17.93,33.1,15.17,49.65,22.76s20,26.2,27.58,41.37c1.38,2.76,3.45,4.14,5.52,6.21,8.27,7.59,22.76,11,22.76,23.45,0.69,4.14-3.45,9-8.27,9.65-11.72,2.07-30.34-2.07-30.34,14.48,0,15.86,6.9,35.17-9,46.2-1.38.69-3.45,1.38-4.83,2.07-11,4.14-22.76,0-34.48,2.76a27,27,0,0,0-15.86,11.72c-6.9,11.72-6.9,26.89,4.83,35.86,6.21,4.83,13.79,6.9,21.38,7.59,12.41,0.69,22.07-7.59,30.34-15.86,2.07-2.76,4.83-5.52,6.9-8.27,31-42.75,60.68-77.92,90.33-122.05,4.83-7.59,9.65-14.48,14.48-22.07a7.79,7.79,0,0,1,.28-2.36" transform="translate(-835.68 4.59)"/><path class="cls-4" d="M1712.64,556.26c-1.43,1.89-2.81,4-4.88,5.34-3.45,4.14-3.45,12.41,3.45,14.48,5.52,1.38,11-.69,15.17,2.76s4.14,9.65,3.45,14.48c-2.07,11.72-7.59,22.76-4.83,35.17,0.69,3.45,2.76,6.21,4.83,9,4.83,4.14,11.72,2.76,17.93,4.83,10.34,2.76,15.17,15.86,10.34,25.51-8.27,15.86-26.89,24.82-44.13,20-23.45-6.21-29-31-40.68-50.34-11-16.55-29.65-24.82-49-23.45a68.88,68.88,0,0,0-22.81,5.16,47.7,47.7,0,0,0-4.77,2.43c-0.69.69-2.07,0-2.76,0.69-10.34,6.21-18.62,13.1-24.82,23.45-0.69.69,0,2.07-.69,2.76-15.86,31-12.41,65.51-17.24,99.3,0,2.76,1.38,4.14,3.45,5.52,6.9,2.76,13.1-2.07,19.31-5.52,1.38-.69,3.45-1.38,4.83-2.07,15.86-4.83,17.24,16.55,24.13,26.89a65.38,65.38,0,0,0,13.79,13.79c9,5.52,19.31,6.9,29,2.76,12.41-5.52,20.69-15.86,30.34-24.82,7.59-6.21,15.86-12.41,26.2-11.72,14.48,2.07,20.69,15.17,27.58,26.89,11.91,21.84,22.55,43,35,63.61,0.52,0.86,1,1.73,1.57,2.59a23.4,23.4,0,0,1,2.34.32c14.45,2.72,23,18.37,19,32.78-4.14,11-15.86,15.17-26.89,17.24h-3.45c-2.07.69-3.45,1.38-5.52,1.38-17.93,1.38-36.55,0-53.1,9.65-10.34,6.21-17.24,15.17-23.45,25.51-2.26,4.14-4.52,8.19-6.73,12.2-5.86,10.67-11.33,21.1-15.34,32.62-1.38,3.45-2.76,7.59,0,10.34,4.83,3.45,11.72,2.07,17.24,4.14,6.21,2.76,5.52,9.65,4.83,15.17-3.45,14.48-13.79,33.79,1.38,42.75,6.9,4.14,15.17,4.14,20.69,9.65,5.52,6.9,4.83,17.24-3.45,22.76-4.83,6.9-3.45,15.86-3.71,23.49" transform="translate(-835.68 4.59)"/><path class="cls-4" d="M1236,959.43a166.85,166.85,0,0,1-20.71-29.89h0c-6-10.75-11.2-22-16.41-33.51-0.69-1.38,0-2.07-.69-3.45-5.52-13.1-11.72-27.58-6.9-41.37a15.07,15.07,0,0,0,2.07-3.45c2.76-3.45,6.9-4.14,11-3.45,8.27,2.07,13.1,9,17.93,15.86,5.52,6.9,11.72,11.72,20.69,12.41,6.9,0.69,13.1-2.76,17.93-6.9,6.9-6.9,13.79-15.86,24.82-13.79,6.9,1.38,11,7.59,15.86,11.72,4.83,5.52,9.65,15.17,18.62,11.72,9.65-15.17,0-33.1-1.38-49.65-0.69-12.41,2.76-23.45,4.14-35.86,1.38-9.65-.69-19.31-4.83-28.27-5.52-14.48-16.55-25.51-30.34-33.1-0.69-.69-2.07,0-2.76-0.69-13.1-7.59-29-6.9-42.75-2.76a33.62,33.62,0,0,1-4.83,2.07c-11,5.52-20.69,14.48-25.51,26.2-6.9,17.24-5.52,49-31,46.89-8.27-.69-10.34-10.34-9-17.93a253.9,253.9,0,0,1,12.41-34.48c0.69-1.38,0-2.07.69-3.45,5.52-11.72,10.34-24.82,9.65-37.93,0-2.76-2.76-4.14-5.52-4.83-8.27-.69-17.93,2.07-25.51-3.45-6.21-5.52-5.52-13.1-5.52-20.69,0.69-11.72,1.57-121-.26-132.87" transform="translate(-835.68 4.59)"/><path class="cls-4" d="M1013.44,699.23c2.46-2.2,3-5.44,4.28-8.23,6.33-14,16.47-24.45,29.5-32.33s27.14-10.65,42-9.52c10,0.76,19.65,3.26,28.07,9.47,5.92,4.36,10.23,9.34,11.1,17a32.06,32.06,0,0,0,2.62,8.86c1.06,2.51,2.25,5,3.19,7.53,6,16.19,12.29,32.23,19.72,47.82,2.4,5,2.25,6.73-2.94,8-6.89,1.7-7.66,5.85-7.27,11.78,0.63,9.81-.33,19.63-0.86,29.44s-12.33,18.82-22.22,18.85a50,50,0,0,0-22.29,5.6c-11.26,5.52-11.25,16.45-8,24.73,3.88,9.79,10.08,18.4,17.27,26.09,13.69,14.63,27.85,28.8,41.42,43.54,16.54,18,33.18,35.87,47.88,55.43,3.63,4.83,7.76,9.31,11.72,14-9.63,8.36-14.34,19.6-19,30.88a97.75,97.75,0,0,1-5.28,10.15c-4.64,8.26-12.4,11.4-21.2,13.12-5.1,1-10.07,2.79-13.05,7.65a7.6,7.6,0,0,0,.11,8.61c3.81,5.23,8.91,8.45,15.83,8.34,6-.1,11.9-0.23,17.88.76,4.19,0.7,6.27,2.64,7.79,6.39,2,4.88,2.28,10.06,2.11,15-0.23,6.45.06,12.89-.26,19.31" transform="translate(-835.68 4.59)"/><path class="cls-4" d="M1422.81,793.85c-0.12-2.9-2.07-6-3.54-8.41-6.14-10.09-16.36-15.87-26.14-21.87-10.34-6.34-20.21-13.58-28.58-22.4-9.06-9.57-15.63-20.91-21.4-32.68-3-6.1-5.82-12.26-8.79-18.36-2.88-5.92-5.69-11.94-7-18.43-0.82-4-1.9-10.74,4.1-10.67,3,0,5.74,1.36,8.81,1.23a10.72,10.72,0,0,0,5.68-1.63c3.08-2.13,3.77-6.06,3.72-9.57-0.09-6.53-2.25-12.81-3.77-19.09-1.6-6.59-1.87-13.14,1.63-19.2a25.28,25.28,0,0,1,11.33-10.07c4.84-2.3,10.16-3.19,15.09-5.24a27.57,27.57,0,0,0,12.54-9.75c2.94-4.34,3.68-10.25.88-14.89-3-5-10.09-7.92-15.22-10-12.63-5.2-26.22-7.23-39.32-10.89l-17.47-7.31h0" transform="translate(-835.68 4.59)"/><path class="cls-4" d="M1620,566.48c5.69,6.07,5.65,7.61-.24,13.52-4.9,4.92-10.91,7.84-17.36,10.18-11.32,4.1-22.23,8.9-30.47,18.27-4.58,5.21-7.61,11.23-10.65,17.38-11.68,23.5-25.51,45.77-40.06,67.58-12.43,18.64-23.62,38.09-37.08,56.06-8,10.68-16.59,20.68-27.52,28.51-1.53,1.1-2.61,2.85-3.9,4.3" transform="translate(-835.68 4.59)"/><path class="cls-4" d="M1042.89,790.47a32.12,32.12,0,0,1-2.87-3.88q-9-16.86-17.87-33.79a118.7,118.7,0,0,1-9.19-24.13,27,27,0,0,0-4.38-9.63c-3.05-4-7.27-5.55-11.07-4.36-4.94,1.54-7,4.7-7.27,10.62-0.47,9.86,1.61,19.43,3.5,28.95,3.54,17.88,6.79,35.75,6.19,54.09-0.56,17.25-6.36,32.36-18.41,44.84-2.52,2.61-5.71,4.6-8.65,6.8-1.26.94-2.54,2.19-4.33,1" transform="translate(-835.68 4.59)"/><path class="cls-4" d="M1013.92,703.09a6,6,0,0,0-.92-3.76c-1.07-1.78-2.82-3.18-3.94-4.91-6-9.23-13.85-15.69-25.55-16-21.08-.48-40.8,11-41.55,36.7-0.61,21.14,6.43,40.13,16,58.39,6.43,12.27,14,24.14,17.16,37.72,3.64,15.78,2,31.09-5.8,46a22.57,22.57,0,0,1-2.05,3.21c-4,5.15-9.36,7-15.14,9.19" transform="translate(-835.68 4.59)"/><path class="cls-4" d="M1763.63,843.81a4.58,4.58,0,0,1-1,.23c-20.76.43-41.54,4.36-62.27,0-15.27-3.23-30.12-8-44.95-12.87-15-5-29.89-10.49-45.81-12.25-17.52-1.94-33.21,2.89-47.75,12.2-2.65,1.7-5.13,4.23-3.43,8.13" transform="translate(-835.68 4.59)"/><path class="cls-4" d="M1158.17,677.44c13.33,0.12,96.93.59,110.18,2.2,12,1.46,22.95,6,31.95,14.25,8.57,7.83,15.07,17.94,19.84,28.47,5,11.16,8.54,22.79,15.32,33.12a87.42,87.42,0,0,0,11.8,14.38,88.46,88.46,0,0,0,7.25,6.39c2.2,1.72,5.45,3.28,6.52,6" transform="translate(-835.68 4.59)"/><path class="cls-4" d="M1768.46,847.43c0.06,4,2.77,7.27,3.34,11.11,2,13.06-4.81,20.24-17.35,20.67-8.8.31-17.14-2.56-25.6-4.65-13.23-3.27-26.4-6.94-40-8.33a160.26,160.26,0,0,0-22.22-.63c-8.53.31-17-.51-24.7-5.48-5.51-3.54-11.53-7-18.74-5.46-4.88,1-8.9,3.78-13,6.3-3,1.82-5.71,4-8.72,5.74-5.12,3-5.52,2.83-10.12-1.41" transform="translate(-835.68 4.59)"/><path class="cls-4" d="M964,452.63c-0.28,3.46-1.65,6.91-1,11,4.14,18.62,10.34,35.17,6.9,54.48-2.07,11.72-6.9,22.76-16.55,30.34-6.9,4.83-14.48,6.21-22.76,5.52a28.3,28.3,0,0,1-6-1.55,31.93,31.93,0,0,1-16.72-15c-10.34-20.69-3.45-44.13,11.72-60.68,1.38-.69,2.07-2.07,3.45-3.45a51.1,51.1,0,0,0,7-5.4,11.16,11.16,0,0,0,3.48-9.06" transform="translate(-835.68 4.59)"/><path class="cls-4" d="M1346.3,871.57c-1.06-1.65-.72-3.52-0.72-5.31q0-38.61,0-77.24c0-5.3,0-5.21,5.31-5.34,3.23-.08,6.43.38,9.7-0.79a3.11,3.11,0,0,1,.54-0.14c2.23-.48,4.65.94,6.61,2a85.68,85.68,0,0,0,46.38,10.49,66.91,66.91,0,0,0,8.76-1.06l0.28-.06a68.94,68.94,0,0,0,21.35-8.05c2.72-1.56,5.31-3.05,8.25-3.06a9.35,9.35,0,0,1,3.38.65c1,0.38,2.23.06,3.36,0.06h90.28c1.49,1.56.94,3.51,0.94,5.31,0,15.45,0,30.9,0,46.35,0,1.61-.3,3.28.48,4.83" transform="translate(-835.68 4.59)"/><path class="cls-4" d="M1078.13,1090.73c2.82-23.12.81-46.35,1.48-69.52,0.4-13.78-8.72-21.17-20.79-20.9-23.32.5-46.66,0.14-70,.14-12.3,0-19.79,7.51-19.79,19.79V1096" transform="translate(-835.68 4.59)"/><path class="cls-4" d="M1209,473.31c-5.47,10-10.67,23.49-16.47,33.27-11.67,19.67-27.56,34.13-50.63,39.13-20.4,4.43-39.87,2.52-57.91-8.71a46.21,46.21,0,0,1-4.56-3.6l-0.29-.23" transform="translate(-835.68 4.59)"/><path class="cls-4" d="M1130.27,684.75a7.3,7.3,0,0,0-2,3.85c-2,14.45-8.16,26.6-20.23,35.23q-17.75,12.7-35.73,25.1c-11.55,7.94-21.41,17.25-26,30.93a38.73,38.73,0,0,0-2,10.68,40.14,40.14,0,0,0,1.78,13.51,50.88,50.88,0,0,1,.77,27c-3,12.24-11.14,19.95-21.78,25.57-9,4.76-18.87,7.4-28.47,10.65-7.47,2.53-14.74,5.45-21.27,10.07-12.41,8.76-14.1,29.47-4.8,39.15" transform="translate(-835.68 4.59)"/><path class="cls-4" d="M1119.17,1104.74q0.24-43.94.46-87.86c0-9.21-2.39-17.31-11.1-22.19a14.39,14.39,0,0,0-5.78-2,103.23,103.23,0,0,0-23.16.13c-3.34.44-6.41-.66-9.67-0.64q-29.45.23-58.9,0a123,123,0,0,1-19.8-1.38c-15.95-2.67-24.89-15.94-22.12-30.42a26.69,26.69,0,0,1,2.12-6.54c4.54-9.43,14.18-13.8,24.34-12.74,4.81,0.5,8.89,5.74,8.7,10.57-0.22,5.67-4.33,10.23-9.65,10.61-6.75.48-13-.94-18.36-5.28-1.35-1.08-2.88-2-4.33-2.92" transform="translate(-835.68 4.59)"/><path class="cls-4" d="M1640.53,962.33a23.91,23.91,0,0,0,2.87-2.44,3.51,3.51,0,0,1,4.85-.94c2.4,1.33,2.44,3.79,1.84,5.76-2,6.43-4.3,12.79-8.16,18.34-9,13-12.36,27.67-14,43-1.19,11.4-2.83,22.75-2.46,34.28,0.3,9.43,2.41,17.94,10.18,24.14,2.65,2.12,2.75,5.23,2.86,8.21,0.17,4.34,0,8.68,0,13" transform="translate(-835.68 4.59)"/><path class="cls-4" d="M1209.44,976.81c8.14-6.94,17.49-11.69,27-16.5l1.15-.59,0.19-.1c12.76-6.48,25.53-13,38.33-19.43,9.05-4.56,17.88-9.59,27.43-13.21,7.72-2.92,15.8-3.08,23.72-4.06a49,49,0,0,0,18.68-6.19c3.3-1.91,4.4-6.39,5-10.41,0.81-6-.68-11.9-0.54-17.87,0.06-2.43.26-4.13,2.89-5.43a22,22,0,0,0,7.32-6.13c1.66-2.12,2.14-4.48.88-6.74-1.53-2.77-4.13-2.08-6.7-1.52a26.26,26.26,0,0,0-8.16,3.38,71.52,71.52,0,0,0-9.56,7.43c-11.54,10-25.24,15.55-39.24,20.58-27.16,9.75-54.38,19.34-81.58,29" transform="translate(-835.68 4.59)"/><path class="cls-4" d="M1588.39,931.43c-0.83,3.74,1.31,6,3.85,8.23,8,7,8.94,12.82,5.26,21.2a34.56,34.56,0,0,0-2.64,18.24,50.81,50.81,0,0,0,1.71,8.34c6.19,21.44,5.81,43.28,3.34,65.16-1.23,11-1.92,21.8-.13,32.86,1.06,6.59.19,13.48,0.19,20.25" transform="translate(-835.68 4.59)"/><path class="cls-4" d="M1569.08,984.53c3.77,8.28,4.58,17.16,5.31,26.07,1.43,17.39-2,34.32-5.43,51.15-3,14.55-5,29.09-4.23,44" transform="translate(-835.68 4.59)"/><path class="cls-4" d="M1059,439.44c0.59,22.17,1.28,43.55,4,65.61,2.07,11,8.27,20.69,16.09,28.12" transform="translate(-835.68 4.59)"/><path class="cls-4" d="M1432.95,918.88c1.45-.81,2.9-1.6,4.34-2.41,1.69-1,3.3-2,2.89-4.34-0.35-2-1-3.54-3.34-4.43-4.77-1.83-9.79-1.9-14.69-2.65-0.58-.09-1.16-0.19-1.73-0.3a35.31,35.31,0,0,0-8.2-.48c-5.5.22-11,1.13-16.47,0.32a4.57,4.57,0,0,0-.69,0c-2.23,0-4.72,1.45-7,2.3-12.65,4.69-24.41,11.35-36.66,16.94-0.86.39-1.7,0.79-2.53,1.21-8.41,4.19-16.07,9.72-24,14.7-15.4,9.64-30.47,19.8-45.93,29.33-11.74,7.23-23.33,4.6-34.16-2.45-2.49-1.62-5.41-3.19-6.83-6.16" transform="translate(-835.68 4.59)"/><path class="cls-4" d="M1619.29,958c-1.11-5.47-2-10.87-4.67-16-2.25-4.36-7.27-6.45-8.42-11.49-0.22-1-1.38-1.2-2.36-1a25.31,25.31,0,0,1-6.84.39,37.88,37.88,0,0,0-6.19.1c-0.84.11-1.68,0.19-2.52,0.25a56.06,56.06,0,0,1-15.87-1.57c-0.52-.12-1-0.22-1.57-0.32-4.87-.94-9.9-1.34-14.82-2.21l-5.87-1.06c-9.76-1.77-19.54-3.52-29.39-4.56-1.54-.17-3.07-0.41-4.58-0.69-3.32-.61-6.58-1.39-9.9-1.82-7.94-1-13.74,3.74-17.71,9.63-10.64,15.79-10.75,38.76-1,53.43,4.1,6.19,9.39,11.38,17.78,11.16a7.78,7.78,0,0,0,1.92,0,78.68,78.68,0,0,1,8.92-2c9.52-1.65,19.24-2,28.78-3.46,7.92-1.24,16-2.3,24-3.25a176.12,176.12,0,0,0,24.69-4.27" transform="translate(-835.68 4.59)"/><path class="cls-4" d="M1093.51,430.16c0.11,15.09.73,36,1.85,51,0.93,12.54,1.31,24.48-4.23,36.11a56,56,0,0,1-11.55,15.89" transform="translate(-835.68 4.59)"/><path class="cls-4" d="M1078.13,993.7a18.56,18.56,0,0,0,2.43,2.87c6.65,5.21,8.14,12.49,8.16,20.3q0.09,32.34,0,64.69c0,3.06-.3,6.12-0.46,9.17" transform="translate(-835.68 4.59)"/><path class="cls-4" d="M1508.74,845.5c11-12.77,12.3-37.55,2.4-46.35-4.12.19-5.94,2.74-7.83,6.21-5.9,10.79-4.82,31.78,3.5,40.14" transform="translate(-835.68 4.59)"/><path class="cls-4" d="M1506.81,848.4c-8.49,10.61-25.45,11.18-33.4,5.43-2.88-2.09-4.92-4.77-7.79-6.85a3,3,0,0,0-.3-0.22c0.29-.5.57-1,0.85-1.52a57.26,57.26,0,0,0,7.31-30.15,28.25,28.25,0,0,0-2.33-10.17c-1.1-2.54-2.71-4.08-5.39-4.28s-3.59,1.9-4.88,3.79c-2.94,4.31-3.23,9.39-3.1,14,0.25,9.41.7,19.11,8,26.56" transform="translate(-835.68 4.59)"/><path class="cls-4" d="M1344.85,967.16c1,1.66.72,3.51,0.72,5.31q0,26.55,0,53.1c1.39,1.41,3.17.94,4.83,1,7.08,0,14.16,0,21.24,0,1.65,0,3.43-.46,4.83,1" transform="translate(-835.68 4.59)"/><path class="cls-4" d="M1423.29,794.81a75.47,75.47,0,0,1,2.45,16.89c0.25,9.19-.64,18.36,1.29,27.55,1.7,8.08,5.92,13.54,13.67,15.82,7.9,2.34,15.14.61,21.22-5.22,1.12-1.08,2-2.52,3.7-2.87l0.15,0" transform="translate(-835.68 4.59)"/><path class="cls-4" d="M1019.72,1080.11a8,8,0,0,0,3.86,1c11.91-.06,23.82,0,35.73-0.06a12.36,12.36,0,0,0,2.41-.58v-69.16H992.57v69.76c7.83,0,15.61.55,23.27-.19" transform="translate(-835.68 4.59)"/><path class="cls-4" d="M1550.26,986.95c1.07,6.74.28,13.52,0.46,20.27,0.13,5-.12,10,0.08,15,0.14,3.32-1.08,4.44-4.39,4.41-12.07-.14-24.14-0.06-36.21-0.06-2,0-4-.16-5.79,1" transform="translate(-835.68 4.59)"/><path class="cls-4" d="M1424.26,944.46c2.54,6.09-.84,10-8.2,9.13-7.91-.94-15.78-2.18-23.66-3.34a52.56,52.56,0,0,0-37.2,8.17c-13.21,8.45-24.67,19-36.66,29-12.56,10.43-25.45,20.14-42,23.76-11.17,2.44-21.31-.33-31.4-4.44-14.58-5.92-25.07-17.07-35.72-28" transform="translate(-835.68 4.59)"/><path class="cls-4" d="M931.86,468c1.17,0.88,1,2.17,1,3.38-0.88,24.86-1.59,49.74-5.79,74.34-0.32,1.87-.5,3.82-1.92,5.31" transform="translate(-835.68 4.59)"/><path class="cls-4" d="M970.48,918.4c3.5,1.44,5.54,4.81,9.1,6.43A32.38,32.38,0,0,0,994.13,928c5.4-.16,10.25-5.55,10.11-11-0.17-6.08-4-10.36-10.11-10.49-10.24-.21-18.23,3.37-24.11,11.62a39.27,39.27,0,0,0-2.85,4.7c-5.25,10.1-2.39,23.1,4.28,29.41" transform="translate(-835.68 4.59)"/><path class="cls-4" d="M1516,921.29c2.48,5.39,7,9.43,8.85,15.4,5.68,18,4,34.51-7.39,49.78a27.25,27.25,0,0,0-1.46,2.41" transform="translate(-835.68 4.59)"/><path class="cls-4" d="M1060.27,1021.22h-67.1" transform="translate(-835.68 4.59)"/><path class="cls-4" d="M1693.63,540.89c0.12,5.54-3.63,8.9-7.3,12-6.19,5.23-13.36,8-21.67,6.83a2.6,2.6,0,0,1-.94,0,11.31,11.31,0,0,0-7.28-2.86,26.15,26.15,0,0,0-7.53,1.26c-1.5.42-3,.86-4.51,1.17a209.09,209.09,0,0,0-20.72,4.94c-1.3.42-2.63,0.77-4,1.09a86.37,86.37,0,0,0-9.19,2.45,8.55,8.55,0,0,1-1.54.4c-3,.52-6.3-0.23-9.54.58-4.34,1.1-8.72,2-13.1,2.91-9.66,1.94-19.38,3.61-28.94,6.1l-0.57.14c-5.31,1.37-11.07,2.63-16.73,2.52-1.76,0-3.5,0-5.23.12-14.41.89-28,6.19-42.08,8.63" transform="translate(-835.68 4.59)"/><path class="cls-4" d="M977.72,1028.46c0.28,21.09-.76,42.18,1,63.24" transform="translate(-835.68 4.59)"/><path class="cls-4" d="M1625.08,551.51c1.52-2,4.19-3.35,4.68-5.83a5.1,5.1,0,0,0-.34-2.85c-0.39-1-.31-2.4-1.45-2.87-2.76-1.1-4.94-3.52-7.61-4.79a7.6,7.6,0,0,0-4.45-.75c-2.68.37-5.15-.57-7.72-0.82-12.54-1.23-20.51,6.36-27.93,14.61-4.44,4.93-8,10.63-12.21,15.81a8.35,8.35,0,0,0-1.87,4.39" transform="translate(-835.68 4.59)"/><path class="cls-4" d="M1176.61,436.32c0,3.94-.55,9.58,2.19,12.81,1.28,1.51,3.33,2.28,5,3.3,1.9,1.15,3.74,2.39,5.54,3.7a104.6,104.6,0,0,1,10.14,8.5c2.91,2.75,5.8,7.14,9.49,8.7" transform="translate(-835.68 4.59)"/><path class="cls-4" d="M1550.74,869.64q0,26.08,0,52.14a19.17,19.17,0,0,1-.46,2.9" transform="translate(-835.68 4.59)"/><path class="cls-4" d="M1422.33,903.92c-1.53-4.83-5.05-8.43-7.72-12.56-7.8-12.12-15.56-24.27-23.27-36.3a14.49,14.49,0,0,0-6.39,3c2.47,6.07,6.48,11.08,9.9,16.43,5,7.73,9.32,15.83,14.53,23.4,0.74,1.08,1.5,2.15,2.29,3.21a6.23,6.23,0,0,1,.52,2.39" transform="translate(-835.68 4.59)"/><path class="cls-4" d="M1054.48,1096.53a19.34,19.34,0,0,0-15-5.82c-3.85.17-7.72,0.17-11.58,0a19.34,19.34,0,0,0-15,5.82" transform="translate(-835.68 4.59)"/><path class="cls-4" d="M1592.25,861.43a6.38,6.38,0,0,1-1.21,3.66c-1.69,2.2-4.82,2.57-7.5,3-9.26,1.42-18.65.21-28,.63a17.09,17.09,0,0,1-4.53-.36c-5.34-1.2-8.27-5.12-9.94-9.82a9,9,0,0,1-.48-2.48c-0.39-6.21,4.75-13.78,10.76-15.2,0.27-.07.54-0.12,0.81-0.16a57.26,57.26,0,0,1,6.31-.54c2.71-.1,5.42,0,8.13.07,5.65,0.23,11.29.7,16.94,0.52,0.79,0,1.61.9,2.41,1.38" transform="translate(-835.68 4.59)"/><path class="cls-4" d="M1477.85,926.84c-5.63,12-11.45,23.9-16.69,36.05-0.75,1.75-4.21,2.87-2.14,5.71" transform="translate(-835.68 4.59)"/><path class="cls-4" d="M1602.39,830.06c-3.3-2.87-7.14-1.15-10.61-.83a51.41,51.41,0,0,0-20.82,6c-1.87,1-3.43,2-4.29,4" transform="translate(-835.68 4.59)"/><path class="cls-4" d="M1620.25,837.3c-13.76,1.45-25,8-34.76,17.38" transform="translate(-835.68 4.59)"/><path class="cls-4" d="M1616.88,930.46a6.47,6.47,0,0,1,3.3-1,6.57,6.57,0,0,1,3.94,1.45,5.62,5.62,0,0,1,1.42,1c6.25,9.31,16.4,8.19,25.61,9.65,5.64,0.9,11.27,1.92,16.89,2.88" transform="translate(-835.68 4.59)"/><path class="cls-4" d="M1407.85,919.36c7.11-1.25,14.2,0,21.22.69a9.8,9.8,0,0,1,5.9,3.34,32.49,32.49,0,0,1,2.7,3.29c4.54,6.17,8.54,12.76,12.6,19.27,0.61,1,2.21,1.77,1.5,3.34a9.62,9.62,0,0,0-.89,5.67c0.74,4.36,4.77,7.49,7.17,11.23" transform="translate(-835.68 4.59)"/><path class="cls-4" d="M1623.15,846c-10.65,2.37-20.08,7.36-29,13.5a7.57,7.57,0,0,1-2.19,1.1c-2.4.73-4.33-.44-5.43-3.52-0.69-1.92-2.24-2.64-3.48-3.82-2.09-2-2.08-4.12-.46-6.28a42.52,42.52,0,0,1,3.83-4.39c4.8-4.79,10.56-8.44,16.25-12.05l0.8-.51c2.59-1.64,6.63-1,10-1.4" transform="translate(-835.68 4.59)"/><path class="cls-4" d="M1648.73,547.17c-0.58,1.57-1.8,2-3.36,2.48q-9.43,2.75-19,5.22-6.78,1.76-13.53,3.37c-3.35.81-6.76,1.61-10.19,2.38-4.41,1-8.86,2-13.27,2.83-6.28,1.24-12.58,3.31-18.89,5l-4.07,1.06c-9.26,2.42-18.51,4.82-27.81,7.09-1.72.42-3.19,0.67-3.85,2.48" transform="translate(-835.68 4.59)"/><path class="cls-4" d="M1508.74,848.4c5.75,5.72,12.94,7.58,20.76,7.72,3.38,0.06,6.76,0,10.14,0" transform="translate(-835.68 4.59)"/><path class="cls-4" d="M1614.46,921.78c1.36,2.45.09,5.52,1.17,7.62,0.23,0.46.48,0.9,0.74,1.36a28.64,28.64,0,0,0,4.21,5.65c5.56,5.74,7.55,13.36,8.85,21.09" transform="translate(-835.68 4.59)"/><path class="cls-4" d="M1571,927.57a7.93,7.93,0,0,1,5.8-4.3c5.73-1,11.38-2.66,17.39-1.58a9.63,9.63,0,0,1,2.28.65c1.49,0.7,1.94,1.9,1.11,4.28a9.42,9.42,0,0,0-.59,3.3,8.31,8.31,0,0,0,2.9,5.94c5.85,5.72,8.35,13.07,8.76,21.16" transform="translate(-835.68 4.59)"/><path class="cls-4" d="M1476.88,927.33c-5.09-1.57-10.3-.44-15.45-0.69-3.69-.18-7.4,0-11.1,0" transform="translate(-835.68 4.59)"/><path class="cls-4" d="M1626,553.44a3.27,3.27,0,0,0-1.74-1.89,10.54,10.54,0,0,0-2.09-.64c-4.85-1.12-9.58-2.76-14.4-4.09l-2.06-.54c-1.65-.41-4-0.82-5.21.48-4.35,4.81-10,8.82-11.18,15.86" transform="translate(-835.68 4.59)"/><path class="cls-4" d="M1432,935.77c4,2.32,5.28,6.65,7.77,10.1,2.65,3.66,4.1,8.87,10.09,8.72" transform="translate(-835.68 4.59)"/><path class="cls-4" d="M1634.25,940.12c1,5.26,3.5,10.05,4.61,15.39,1.44,6.84.16,12.78-2.18,18.89a33.93,33.93,0,0,0-1,3.85" transform="translate(-835.68 4.59)"/><path class="cls-4" d="M1655,547.65a1,1,0,0,0,.47,0,21.36,21.36,0,0,1,4.79-5.54c5.22-4.15,11.68-4.26,18.85-1.63,4.41,1.61,8.61.38,12.87,0l1.14-.08c1.29-.07,1.79-1.39,2.42-2.37" transform="translate(-835.68 4.59)"/><path class="cls-4" d="M1650.66,546.2a6.47,6.47,0,0,1,1-1.9c2.34-2.14,3.41-4.79,2.32-7.73-1.37-3.69-4.64-4.1-8.14-3.9q-4.13.23-8.25,0.41l-12.5.57a5.28,5.28,0,0,0-3.38,1.45" transform="translate(-835.68 4.59)"/><path class="cls-4" d="M1412.19,930.46c4.08,1.33,8.35,1.46,12.56,1.85a12.64,12.64,0,0,1,4.8,1.18,4.71,4.71,0,0,1,1.45,1.19,10.39,10.39,0,0,1,.06,1.12c0.09,5.15-3.08,7.9-7.27,7.66s-8.55.47-12.58-1.37a2.94,2.94,0,0,0-1.43.44" transform="translate(-835.68 4.59)"/><path class="cls-4" d="M1609.15,568.89c-4.05,5.56-10.28,7-16.44,8a5.34,5.34,0,0,1-6.25-4.65" transform="translate(-835.68 4.59)"/><path class="cls-4" d="M1098.89,1095.56c-3-3.32-6.65-4.59-11.1-4.39-4.82.22-9.66,0.22-14.48,0-4.45-.2-8.14,1.07-11.1,4.39" transform="translate(-835.68 4.59)"/><path class="cls-4" d="M1407.85,898.12c-4.39,1.17-9.27,1.3-12.07,5.79" transform="translate(-835.68 4.59)"/><path class="cls-4" d="M1607.7,548.13c-1.84,3.66-5.2,6.61-5.31,11.1" transform="translate(-835.68 4.59)"/><path class="cls-4" d="M1620.74,929a19.25,19.25,0,0,0,1.9-2.43c1.59-2.83.18-6.46-2.85-6.09a41.59,41.59,0,0,1-5.32.28c-5.84,0-11.73-.66-17.39,1.48" transform="translate(-835.68 4.59)"/><path class="cls-4" d="M1639.56,543.31c2.64,2.45,6.28,2.09,9.42,3.08l0.3,0.1,1.15,0.39c2.73,0.93,4.06,1.37,4.81,2.59,0,0,0,0,0,0,0.67,1.08.88,2.76,1.21,5.92" transform="translate(-835.68 4.59)"/><path class="cls-4" d="M1433.91,924.19a12.63,12.63,0,0,1-3.86,9.17" transform="translate(-835.68 4.59)"/><path class="cls-4" d="M1637.63,534.13c1,2.33,3,4.24,2,7.25a15.73,15.73,0,0,1-.66,1.66c-1.37,2.81-3.35,3.37-8.56,2.67" transform="translate(-835.68 4.59)"/><path class="cls-4" d="M1347,916.95c2,2.12.18,5,1.45,7.24" transform="translate(-835.68 4.59)"/><path class="cls-4" d="M985,1098.46c-1.52-1.68-3.85,1-5.31-1" transform="translate(-835.68 4.59)"/><path class="cls-4" d="M1081,1107.15l3.38,0.48" transform="translate(-835.68 4.59)"/><path class="cls-4" d="M1382.26,813.16c-5.34,1.33-9.81,3.17-11.25,9.62-1.51,6.71.37,12.07,6.9,15.48a12.88,12.88,0,0,0,16.42-3.86c3.59-4.65,3.12-12.05-1-16.43-2.89-3.1-6.29-5-10.63-4.81" transform="translate(-835.68 4.59)"/><path class="cls-4" d="M1447.91,881.7a2.37,2.37,0,0,0-2.39,2.42c-0.06,4.34,0,8.7,0,13.52h79.17c5.3,0,5.31,0,5.31-5.31,0-3.22,0-6.44,0-10.63h-81.58" transform="translate(-835.68 4.59)"/><path class="cls-4" d="M1504.39,927.57c-9.38,3-15.32,11.83-16.08,21.71-0.65,8.52,0,16.52,4,24.16a18,18,0,0,0,6.77,7.25c5.64,3.45,11.42,1.71,16.45-4.83,8-10.47,7.67-30.83,0-41.57-2.74-3.86-6.43-5.59-10.69-6.72" transform="translate(-835.68 4.59)"/><path class="cls-4" d="M1499.54,480.68a2,2,0,0,0-1.9,1.93c0,7.56,0,15.14,0,23.17,6.75,0,13,0,19.31,0,2.51,0,2.94-1.3,2.92-3.41-0.07-6.11-.14-12.23,0-18.34,0.09-3-1.43-3.45-3.91-3.41-5.31.1-10.63,0-15.94,0" transform="translate(-835.68 4.59)"/><circle class="cls-4" cx="247.26" cy="103.8" r="4.81"/><circle class="cls-4" cx="567.91" cy="293.43" r="4.81"/><circle class="cls-4" cx="114.5" cy="653.49" r="4.81"/><circle class="cls-4" cx="451.62" cy="805.22" r="4.81"/><circle class="cls-4" cx="594.37" cy="601.58" r="4.81"/><circle class="cls-4" cx="764.06" cy="689.34" r="4.81"/><circle class="cls-4" cx="883.79" cy="973.2" r="4.81"/><circle class="cls-4" cx="1040.03" cy="289.92" r="4.81"/><path class="cls-5" d="M1849.6,129.83c-5.72-13.86-16.34-23.49-28-32.15-3.26-2.42-6.84-4.39-10.27-6.57l-8.54,11.19c-4.74,1.06-14.13,1.78-12.39,5.87,2.46,7.49,10.14,8.42,15.67,11.73a85.94,85.94,0,0,1,9,6.33c3.29,2.59,4,8,1.18,12-3.38,4.82-7.28,9.39-11.92,12.56-16.68,11.37-27.34,26.36-30.64,46.39-2.21,13.42,1.83,13.42-5,24.69" transform="translate(-835.68 4.59)"/><path class="cls-5" d="M1837.59,137.37c-3.3-4-3.9-9.44-7.37-13.4-6.31-7.2-12.74-14.11-21.74-18.15-5.12-2.3-6-4.83-3.36-9.27A74,74,0,0,1,1814,84.87a5.79,5.79,0,0,1,7.68-1c10.1,6.18,22.08,10.07,28.68,20.63" transform="translate(-835.68 4.59)"/><path class="cls-5" d="M1841.18,94.15c1.56-3.34-1.13-4.93-2.87-6.86a66.4,66.4,0,0,0-10.49-9.64c-6.41-4.58-6.29-9.26,0-13.65,6.69,4.35,19.83,10.82,23.81,18.48,2.05,3.95,4.81,8.08,9.17,10.38l2.93,17c2.1-3,.41-5.88-0.21-8.79s-1.89-5.64-1.77-8.41c0.59-13.32-3.3-24.71-13.4-33.71a29.08,29.08,0,0,1-5.25-5.43c-1.86-2.79-3-5.5-.44-8.28,2.69-2.95,5.79-2.84,9.1-.77a51.32,51.32,0,0,1,17.35,18.22c5.45,9.45,7.33,19.78,8.14,30.46,0.63,8.33,1.59,16.92-.85,24.83-5.15,16.72-13.94,31.9-23.6,46.35-9.27,13.88-18.63,23.52-28.28,37.17" transform="translate(-835.68 4.59)"/></g><rect class="cls-6" x="129.73" y="87.48" width="372.68" height="23.13"/><rect class="cls-6" x="403.23" y="281.48" width="295.9" height="23.13"/><rect class="cls-6" x="38.52" y="649.18" width="186.34" height="23.13"/><rect class="cls-6" x="335.79" y="793.66" width="251.04" height="23.13"/><rect class="cls-6" x="577.45" y="678.49" width="372.68" height="23.13"/><rect class="cls-6" x="516" y="590.01" width="177.14" height="23.13"/><rect class="cls-6" x="702.26" y="966.34" width="372.68" height="23.13"/><rect class="cls-6" x="888.59" y="277.06" width="200.43" height="23.13"/></svg>