<svg id="Layer_1" data-name="Layer 1" xmlns="http://www.w3.org/2000/svg" viewBox="0 0 2076.58 1144.5"><title>CP_countdown0</title><g style="opacity:0.47000000000000003"><path d="M2072.55,903.64c3.79,8.43,2.4,16.74-5.19,22-11.71,8.19-24.84,7.75-37.82,4a46.37,46.37,0,0,1-17.57-9.34l0.45-.52c1.15-1.37,2.41-2.66,3.41-4.12,8.69-12.7,21.27-19.4,35.85-22.54A18.4,18.4,0,0,1,2072.55,903.64Z" transform="translate(0 45.98)" style="fill:#c6c6c6"/><path d="M2060.64,846.42c2.17,7.47-1.55,17.23-8,21.07-17.31,10.27-40.68,5.65-54.2-6.7l0.21-.23c6.06-7.42,11.7-15.22,20.3-20.14a53.08,53.08,0,0,1,23.7-7C2051.46,832.85,2058.8,840.07,2060.64,846.42Z" transform="translate(0 45.98)" style="fill:#c6c6c6"/><path d="M2047,787.13c3.24,11.8-4.29,20.77-14.87,23.47-16.64,4.26-31.61,1-45.35-8.6l-0.76-.51a91.75,91.75,0,0,1,10.86-14c7.53-7.6,16.88-11.4,26.88-13.67C2034.86,771.3,2044.26,777.31,2047,787.13Z" transform="translate(0 45.98)" style="fill:#c6c6c6"/><circle cx="1988.83" cy="297.72" r="4.94" style="fill:#c6c6c6"/><path d="M1938.08,421.47l-0.2,1.65a11.35,11.35,0,0,0-3.95.26c-19.9,4.8-37.78,10.28-57.6,13.79l-1.22.22c-4.2.7-8.4,0.7-12.6,1.4-5.36,1.08-10.53,2-15.6,3-11.48,2.15-22.46,4.35-34.12,8.24-1.31,0-2.35,1.09-3.29,2.43l-1.14-.88c-4.08-1.92-8,.11-11.87.79-5.51,1-10.65,2.2-16.51,1.52l0.19-1.68c0.85-2.36,2.76-2.68,5-3.22,12.06-2.95,24.08-6.07,36.09-9.2l5.28-1.37c8.19-2.13,16.38-4.81,24.53-6.43,5.73-1.13,11.5-2.38,17.24-3.68,4.45-1,8.87-2,13.22-3.08,5.84-1.4,11.7-2.86,17.55-4.39q12.35-3.2,24.61-6.77c2-.6,3.61-1.18,4.36-3.22l0.32-1,0.4,0.13,1.49,0.51C1936.92,412.68,1937.17,412.7,1938.08,421.47Z" transform="translate(0 45.98)" style="fill:#c6c6c6"/><path d="M1903,405.17a6.61,6.61,0,0,1,.45,3.71c-0.64,3.22-4.1,5-6.09,7.57l-1,0a13.14,13.14,0,0,0-2.72-.83c-6.3-1.46-12.45-3.58-18.69-5.3l-2.68-.71c-2.13-.54-5.24-1.07-6.76.62-5.65,6.25-12.94,11.44-14.52,20.58l0.09,1.08c-8.15,1.62-16.34,4.3-24.53,6.43l-5.28,1.37-0.35-1.36a10.94,10.94,0,0,1,2.42-5.71c5.43-6.73,10.08-14.12,15.85-20.52,9.63-10.69,20-20.55,36.25-19,3.34,0.33,6.54,1.54,10,1.06a9.93,9.93,0,0,1,5.77,1c3.46,1.65,6.29,4.78,9.87,6.22C1902.59,402.06,1902.47,403.87,1903,405.17Z" transform="translate(0 45.98)" style="fill:#c6c6c6"/><path d="M1697.34,842.73c-2.47.75-4.45-.45-5.59-3.62-0.7-2-2.3-2.71-3.57-3.92-2.15-2-2.13-4.24-.47-6.45a43,43,0,0,1,3.93-4.51c4.93-4.93,10.85-8.68,16.69-12.38l-0.3-.48c-3.4-2.95-7.34-1.18-10.9-.86a52.82,52.82,0,0,0-21.39,6.21c-1.92,1.08-3.53,2.06-4.41,4.07l0,1c-2.78-.11-5.57-0.17-8.35-0.07l0-.95c-1.75-4,.79-6.6,3.52-8.35,14.93-9.56,31.06-14.53,49.05-12.53,16.36,1.81,31.66,7.49,47.07,12.59,15.23,5,30.48,9.9,46.18,13.22,21.3,4.51,42.64.47,64,0a4.7,4.7,0,0,0,1-.24l1.2-.73c0.53,0.89,1.07,1.78,1.62,2.66a24,24,0,0,1,2.41.33l-0.26,1.45c0.06,4.14,2.84,7.47,3.44,11.41,2,13.42-5,20.79-17.82,21.25-9,.31-17.6-2.64-26.3-4.78-13.59-3.36-27.13-7.13-41.14-8.56a165.75,165.75,0,0,0-22.83-.65c-8.76.32-17.45-.52-25.38-5.62-5.66-3.64-11.84-7.16-19.26-5.61-5,1-9.14,3.88-13.38,6.48-3,1.86-5.87,4.1-9,5.89-5.26,3-5.67,2.9-10.39-1.45l-0.25-.2a6.65,6.65,0,0,0,1.24-3.77Z" transform="translate(0 45.98)" style="fill:#c6c6c6"/><path d="M1829.38,348.24c7.67,0,12.53,4.17,12.53,10.65,0,6.31-5.06,10.64-12.53,10.65q-27.26,0-54.51,0v-1.88a124.1,124.1,0,0,0,.7-19.4l1.18,0c6.89,0,13.74-.62,20.69-0.18C1808,348.73,1818.72,348.22,1829.38,348.24Z" transform="translate(0 45.98)" style="fill:#c6c6c6"/><circle cx="1828.32" cy="999.69" r="4.94" style="fill:#c6c6c6"/><path d="M1801.77,514.29c0.12,5.7-3.73,9.15-7.5,12.33-6.36,5.37-13.72,8.25-22.27,7a2.68,2.68,0,0,1-1,0,11.61,11.61,0,0,0-7.48-2.93l0-1.51c-0.33-3.24-.55-5-1.23-6.08q2.1-2.89,4.24-5.89c0.28-.56.59-1.12,0.91-1.67,5.36-4.26,12-4.38,19.37-1.67,4.53,1.66,8.84.39,13.23,0Z" transform="translate(0 45.98)" style="fill:#c6c6c6"/><path d="M1775.57,348.26a124.1,124.1,0,0,1-.7,19.4v1.88H1629.5c-8.14,0-8.15,0-8.15-8.15V242.34c0-8.14,0-8.15,8.15-8.15h137.85c8.14,0,8.15,0,8.15,8.15q0,49.5,0,99C1775.48,343.65,1775.52,345.95,1775.57,348.26Z" transform="translate(0 45.98)" style="fill:#c6c6c6"/><path d="M1763.58,529.17l0,1.51a26.25,26.25,0,0,0-7.74,1.3c2.16-2.92,4.34-5.87,6.53-8.89C1763,524.19,1763.25,525.93,1763.58,529.17Z" transform="translate(0 45.98)" style="fill:#c6c6c6"/><path d="M1585.72,580.74c4.59,3.4,8.11,7.42,8.11,13.62,0.71,4.25-3.54,9.21-8.5,9.92-12,2.13-31.17-2.13-31.17,14.88,0,16.29,7.08,36.13-9.21,47.46-1.42.71-3.54,1.42-5,2.13-11.33,4.25-23.38,0-35.42,2.83a27.77,27.77,0,0,0-16.29,12c-7.08,12-7.08,27.63,5,36.84,6.38,5,14.17,7.08,22,7.79,12.75,0.71,22.67-7.79,31.17-16.29,2.13-2.83,5-5.67,7.08-8.5,31.88-43.92,62.34-80.05,92.8-125.39,5-7.79,9.92-14.88,14.88-22.67a8,8,0,0,1,.28-2.42l-0.17-.67,0.58-.15c9.83-2.56,19.81-4.28,29.73-6.26l0.11,0.64a5.49,5.49,0,0,0,6.42,4.77c6.33-1,12.72-2.53,16.89-8.25l-0.15-.75a9.42,9.42,0,0,0,1.58-.41,88.36,88.36,0,0,1,9.44-2.54l0.3,1.22c5.84,6.23,5.8,7.81-.25,13.89-5,5.06-11.21,8.06-17.84,10.46-11.63,4.21-22.84,9.14-31.3,18.77-4.7,5.36-7.81,11.54-11,17.85-12,24.15-26.2,47-41.15,69.43-12.77,19.16-24.27,39.13-38.09,57.6-8.21,11-17,21.24-28.27,29.28-1.57,1.13-2.68,2.93-4,4.41l0,0.77c-3,0-5.69,1.54-8.48,3.15a70.83,70.83,0,0,1-21.93,8.27l-0.29.06-0.06-.34c-0.13-3-2.13-6.13-3.64-8.64-6.31-10.36-16.81-16.31-26.86-22.47-10.62-6.52-20.76-13.95-29.36-23-9.31-9.83-16.05-21.48-22-33.57-3.07-6.26-6-12.6-9-18.87-3-6.08-5.84-12.27-7.2-18.93-0.84-4.14-2-11,4.22-11,3.07,0,5.89,1.4,9,1.27a11,11,0,0,0,5.84-1.68c3.17-2.19,3.88-6.23,3.83-9.83-0.09-6.71-2.31-13.16-3.88-19.62-1.64-6.77-1.92-13.5,1.67-19.72a26,26,0,0,1,11.64-10.34c5-2.36,10.44-3.27,15.51-5.38a28.36,28.36,0,0,0,12.89-10c3-4.47,3.78-10.54.91-15.3-3.07-5.11-10.36-8.15-15.63-10.31-13-5.34-26.94-7.43-40.39-11.19l-18-7.52c1.28,0.46,2.6.88,4,1.25,14.39,3.95,26.82-.62,31.21-12.61,3.28-9,1.9-18.33-1.86-26.84-8.2-18.54-18.92-35.73-30-52.66-6.72-10.27-13.72-20.36-20.48-30.61l-2.05-3.14,1.27-.11c2.46-1.46,3.73-3.71,5.11-6.21,7-12.73,10-26.43,10.54-40.78,0.66-16.92,1-33.85,2-50.74,0.53-9,1.81-18.09,6.16-26.33,5.92-11.21,15.94-18,26.3-24.46,14.46-9,30.43-15.59,43.86-26.31,9.58-7.65,17.56-16.15,19.11-29.4,0.48-4.13-2.43-17.54-8-22.3,16.51,12.66,25.91,30.46,27.86,51.72,0.62,6.72,2.14,13.35,3,20.06,1.42,10.5,5.88,19.64,11.89,28.22,4.39,6.26,3.34,9-3.73,11.25-6,1.9-6.77,3.4-6.33,9.41,0.81,11.07,3.77,21.85,2.73,33.22-1.88,20.51-11.44,27.61-30.87,28.18-7.72.23-15.62-.5-23.14,0.84-11,2-18.72,9.07-21.84,19.87-2.93,10.15.89,19.08,7.41,26.89,11.1,13.31,26.55,18.48,42.58,22.59,0.72,10.33-16.57,10.24-23.65,12.36-2.83,1.42-5.67,3.54-6.38,7.08-2.83,19.13-4.25,39,5,56.67,0.71,0.71,0,2.13.71,2.83,11.33,18.42,34,15.59,51,23.38,9.71,4.45,15,12.6,19.26,21.66,3.18,6.82,5.74,14.15,9.08,20.84,1.42,2.83,3.54,4.25,5.67,6.38C1574.82,574.28,1580.87,577.16,1585.72,580.74Zm-49.8-8.82a4.94,4.94,0,1,0-4.94,4.94A4.94,4.94,0,0,0,1535.92,571.92Zm-27.19-316.57a4.94,4.94,0,1,0-4.94,4.94A4.94,4.94,0,0,0,1508.73,255.34Z" transform="translate(0 45.98)" style="fill:#c6c6c6"/><circle cx="1705.31" cy="708.07" r="4.94" style="fill:#c6c6c6"/><path d="M1697.6,924c8.25,7.21,9.18,13.17,5.41,21.78a35.51,35.51,0,0,0-2.72,18.74l-1.18.13a180.94,180.94,0,0,1-25.36,4.39c-8.2,1-16.55,2.06-24.68,3.34-9.8,1.54-19.79,1.86-29.56,3.55l-0.24-1.35c0.5-.83.93-1.7,1.5-2.47,11.7-15.69,13.42-32.69,7.59-51.14-1.93-6.13-6.55-10.29-9.09-15.82l0.23-1.47c1.55,0.29,3.12.54,4.71,0.71,10.12,1.08,20.16,2.88,30.19,4.7l6,1.08c5.06,0.9,10.22,1.3,15.22,2.27l1.61,0.33a57.59,57.59,0,0,0,16.3,1.61l0.1,1.2C1692.79,919.35,1695,921.68,1697.6,924Z" transform="translate(0 45.98)" style="fill:#c6c6c6"/><path d="M1567.54,828.75c-1.74.36-2.65,1.84-3.81,3-6.25,6-13.69,7.76-21.81,5.36-8-2.34-12.3-7.95-14-16.25-2-9.44-1.06-18.87-1.32-28.29a77.54,77.54,0,0,0-2.51-17.36l-0.14-.71a70.83,70.83,0,0,0,21.93-8.27c2.79-1.6,5.45-3.14,8.48-3.15a9.6,9.6,0,0,1,3.47.67c1,0.39,2.3.06,3.45,0.06H1654c1.52,1.6,1,3.61,1,5.45,0,15.88,0,31.74,0,47.61,0,1.66-.31,3.37.49,5l0.16,0.67c-6.18,1.47-11.46,9.24-11.06,15.62l-1,.07c-3.47,0-6.94,0-10.41,0-8-.14-15.42-2-21.32-7.93h-2c-8.72,10.9-26.14,11.49-34.31,5.58C1572.57,833.65,1570.48,830.89,1567.54,828.75Zm0.56-1.79a58.89,58.89,0,0,0,7.51-31,29,29,0,0,0-2.39-10.45c-1.13-2.61-2.78-4.19-5.53-4.4s-3.69,2-5,3.9c-3,4.43-3.32,9.66-3.2,14.42,0.26,9.67.72,19.64,8.21,27.28Zm43.72,0.27c11.31-13.12,12.64-38.58,2.47-47.62-4.23.19-6.1,2.82-8,6.39-6.06,11.08-5,32.64,3.6,41.23h2Z" transform="translate(0 45.98)" style="fill:#c6c6c6"/><path d="M1633.64,864.43c0,4.29,0,7.6,0,10.91,0,5.45,0,5.45-5.45,5.45h-81.33c0-5,0-9.42,0-13.89a2.42,2.42,0,0,1,2.46-2.48h84.31Z" transform="translate(0 45.98)" style="fill:#c6c6c6"/><path d="M1628.35,920.92c5.83,18.45,4.11,35.45-7.59,51.14-0.57.77-1,1.64-1.5,2.47l0.24,1.35a82.91,82.91,0,0,0-9.17,2.1,8,8,0,0,1-2,0c-8.62.23-14-5.11-18.26-11.46-10-15.08-9.88-38.67,1-54.9,4.07-6,10-10.94,18.19-9.88,3.41,0.44,6.75,1.23,10.16,1.86l-0.23,1.47C1621.8,910.63,1626.41,914.79,1628.35,920.92Zm-9.56,40.24c8.25-10.76,7.88-31.67,0-42.71-2.81-4-6.6-5.74-11-6.9h-0.5c-9.63,3.11-15.74,12.15-16.52,22.31-0.67,8.76,0,17,4.09,24.82a18.53,18.53,0,0,0,7,7.45C1607.68,969.66,1613.62,967.88,1618.78,961.15Z" transform="translate(0 45.98)" style="fill:#c6c6c6"/><path d="M1599.35-1.36c4.29,6.57,7.2,15.32,3.92,21.61l-0.26.49c-4.53,8.62-9.95,17.17-17.25,24.37-13.78,13.58-29.45,24.58-46,34.07-12.48,7.14-23.93,14.61-30.56,27.82l-1.67.87c-3.46-6.64-7-13.23-10.74-19.74-6-10.52-11.52-21.31-13.44-33.74-2.25-14.54-2.59-28.44,2.93-41.84a58.44,58.44,0,0,1,3.95-7.8c4.24-7,9.44-13.71,15.53-18.05,0.4-.29.81-0.57,1.23-0.84,16.62-10.77,35.53-15.76,55.45-10.92C1577.21-21.47,1590.64-14.7,1599.35-1.36Z" transform="translate(0 45.98)" style="fill:#c6c6c6"/><circle cx="1530.98" cy="617.9" r="4.94" style="fill:#c6c6c6"/><path d="M1523,887.24l-0.18,1.15c-0.6-.09-1.19-0.19-1.78-0.3a36.27,36.27,0,0,0-8.42-.5l0-.84c-0.17-.83-0.08-1.84-0.54-2.45-0.81-1.08-1.59-2.18-2.35-3.29-5.36-7.78-9.84-16.1-14.93-24-3.51-5.49-7.63-10.64-10.17-16.87a14.89,14.89,0,0,1,6.56-3c7.92,12.35,15.89,24.84,23.91,37.29C1517.86,878.59,1521.48,882.29,1523,887.24Z" transform="translate(0 45.98)" style="fill:#c6c6c6"/><circle cx="1503.79" cy="301.32" r="4.94" style="fill:#c6c6c6"/><path d="M1505.43-13.94l0.3,0.64c-6.09,4.34-11.29,11-15.53,18.05a58.44,58.44,0,0,0-3.95,7.8l-1.51-.17c-2-1.32-4.19-.57-6.27-0.58-11.08-.07-21.65-8-24.33-18.87-2.95-12,1.35-22.58,12.46-29.38,8.81-5.39,21.17-2.9,29.54,4.19C1502.07-27.23,1503.14-20.44,1505.43-13.94Z" transform="translate(0 45.98)" style="fill:#c6c6c6"/><path d="M1493.3,799c4.19,4.49,4.67,12.09,1,16.87a13.22,13.22,0,0,1-16.86,4c-6.72-3.51-8.64-9-7.1-15.9,1.49-6.63,6.08-8.52,11.56-9.88h0.5C1486.83,793.85,1490.33,795.77,1493.3,799Z" transform="translate(0 45.98)" style="fill:#c6c6c6"/><path d="M1483.86,951.19c2.55,0,4.11.38,4,3.51-0.18,6.28-.1,12.56,0,18.84,0,2.16-.42,3.54-3,3.5-6.45-.09-12.9,0-19.84,0,0-8.26,0-16,0-23.8a2,2,0,0,1,2-2h0.5C1473,951.22,1478.41,951.29,1483.86,951.19Z" transform="translate(0 45.98)" style="fill:#c6c6c6"/><path d="M1327.6,561.15a12,12,0,0,1-9.45-11.78c-0.11-4.25,2.5-7.61,6.45-9.15l-0.57-.88c-1.93-3.16-5.69-4.82-6.11-9.38-0.64-6.89,3.3-10.2,8.3-13.18l1-.92c-2.83-2.08-4.34-5.54-4.1-9.73,0.35-6.36,3.92-9.8,10.65-10,5-.15,10.12-0.62,15,0.13s6.73-1.25,7.49-5.19a30.89,30.89,0,0,0-.42-14.44c-2.37-8.59-3.45-17.38,1.7-25.67,3.51-5.66,7.82-6.48,12.6-2.54,3.49,2.86,4.5,6.63,4.94,10.7a96.3,96.3,0,0,0,5.67,24.43c6.25,16.1,16,28.64,32.36,34.49l18,7.52c13.45,3.75,27.42,5.84,40.39,11.19,5.27,2.17,12.56,5.2,15.63,10.31,2.87,4.76,2.12,10.83-.91,15.3a28.36,28.36,0,0,1-12.89,10c-5.07,2.11-10.53,3-15.51,5.38a26,26,0,0,0-11.64,10.34l-3.24-.79h-5.08c-33.42-8.51-67.73-3.61-102-5-3.5-.7-6.3-1.4-9.1-3.5-4.9-4.9-2.1-11.21.74-16.92Z" transform="translate(0 45.98)" style="fill:#c6c6c6"/><path d="M1460.49,852.56c1.29,2.33.8,4.75-.91,6.93a22.59,22.59,0,0,1-7.52,6.3c-2.7,1.34-2.9,3.09-3,5.59-0.15,6.13,1.39,12.21.55,18.35-0.56,4.12-1.69,8.73-5.08,10.69a50.36,50.36,0,0,1-19.19,6.35c-8.14,1-16.44,1.17-24.37,4.17-9.81,3.72-18.88,8.9-28.19,13.58-13.13,6.61-26.25,13.3-39.37,20l-0.2.1-1.18.6-0.45-.9a171.67,171.67,0,0,1-21.28-30.71l0.95-.54c27.94-9.92,55.9-19.77,83.81-29.78,14.39-5.17,28.46-10.82,40.32-21.14a73.57,73.57,0,0,1,9.82-7.64,27,27,0,0,1,8.39-3.46C1456.25,850.43,1458.91,849.71,1460.49,852.56Z" transform="translate(0 45.98)" style="fill:#c6c6c6"/><path d="M1426.42,103.88c2.49,10.55-3,19.87-11.81,22.65-10.41,3.29-23.17-6.82-19.62-22.7a50.84,50.84,0,0,1,13.95-25.66l1.19-1.28C1418.05,83.29,1423.78,92.72,1426.42,103.88Z" transform="translate(0 45.98)" style="fill:#c6c6c6"/><circle cx="1384.32" cy="827.11" r="4.94" style="fill:#c6c6c6"/><path d="M1374.48,107.62c0.92,8.66-3.62,16.33-11.29,18.79s-15.44-1.49-19.47-8.74c-3.27-5.87-2.13-11.8-.5-17.55,2.78-9.78,7.64-17.75,14.61-23.31l1.59,1.35C1368.62,85.85,1373.23,95.86,1374.48,107.62Z" transform="translate(0 45.98)" style="fill:#c6c6c6"/><path d="M1294.09,435.93c3,2.83,6,7.34,9.75,8.93-5.62,10.25-11,24.14-16.92,34.18-9,15.14-20.4,27.27-35.52,34.57a74.13,74.13,0,0,1-16.49,5.63c-21,4.55-41,2.59-59.49-8.95a47.48,47.48,0,0,1-4.68-3.7l0.2-.24A57.56,57.56,0,0,0,1182.79,490c5.7-12,5.31-24.23,4.35-37.11-1.15-15.45-1.79-36.9-1.9-52.4,22.36,12.6,46.35,14.54,71.42,9.1a96.27,96.27,0,0,0,13.49-4l0.46,1.2c0,4-.57,9.84,2.25,13.16,1.32,1.55,3.42,2.34,5.12,3.39q2.92,1.79,5.69,3.8A107.46,107.46,0,0,1,1294.09,435.93Z" transform="translate(0 45.98)" style="fill:#c6c6c6"/><path d="M1102.53,677.07L1103,677c2.53-2.26,3.1-5.59,4.4-8.46,6.5-14.4,16.92-25.11,30.31-33.22s27.88-10.94,43.15-9.78c10.29,0.78,20.18,3.35,28.83,9.73,6.09,4.48,10.51,9.6,11.41,17.43a32.94,32.94,0,0,0,2.69,9.1l-0.77.33a7.49,7.49,0,0,0-2.05,4c-2,14.84-8.38,27.32-20.78,36.19q-18.23,13-36.7,25.79c-11.87,8.15-22,17.72-26.73,31.78a39.74,39.74,0,0,0-2.1,11l-1.4-.08a33,33,0,0,1-2.95-4Q1121,749.4,1111.93,732a122,122,0,0,1-9.44-24.79,27.78,27.78,0,0,0-4.5-9.9c-3.14-4.1-7.47-5.7-11.38-4.48-5.09,1.59-7.18,4.83-7.47,10.91-0.48,10.13,1.65,20,3.6,29.74,3.64,18.37,7,36.72,6.36,55.57-0.57,17.72-6.55,33.25-18.92,46.07-2.59,2.68-5.87,4.72-8.88,7-1.29,1-2.61,2.25-4.45,1l-1.32-.5a23.68,23.68,0,0,0,2.11-3.31c8.06-15.29,9.7-31,6-47.22-3.22-13.95-11-26.15-17.63-38.75-9.84-18.77-17.07-38.27-16.44-60,0.77-26.35,21-38.19,42.69-37.7,12,0.27,20.06,6.91,26.25,16.4C1099.64,673.8,1101.43,675.24,1102.53,677.07Z" transform="translate(0 45.98)" style="fill:#c6c6c6"/><path d="M1187.14,452.94c1,12.88,1.35,25.15-4.35,37.11a57.56,57.56,0,0,1-11.87,16.32l-0.2.24-0.3-.24c-8-7.64-14.4-17.55-16.53-28.89-2.83-22.67-3.54-44.63-4.14-67.41l-0.46-1.23A77.44,77.44,0,0,0,1174.59,394l0.62-.62a68.71,68.71,0,0,0,6.29,5q1.86,1.16,3.74,2.21C1185.35,416,1186,437.49,1187.14,452.94Z" transform="translate(0 45.98)" style="fill:#c6c6c6"/><circle cx="1174.37" cy="106.51" r="4.94" style="fill:#c6c6c6"/><path d="M1152.58,1033.05v25.29h-1.49a32.29,32.29,0,0,1-12.41-1.94c-5.24-1.91-7.07-5.68-4.92-10.94,1.51-3.7,3.56-7.19,4.87-10.95,2.54-7.28-.41-13.93-7.88-18.31a14.68,14.68,0,0,0-18.33,2.47c-4.14,4.31-6.94,9.49-9.47,14.85a4.53,4.53,0,0,0,.23,4.48h4.65c1.58,6.79-1.22,6.37,10,6.45L1119,1045c-1.72,3.2-4.34,5.39-9.07,4.39-1.57-.33-2.86.55-2.87,2s0,3.1,2.35,3.58c2.59,0.52,5.65.95,6.74,4.78-2.39,2.82-4.38,6.6-7.64,8.36a8.06,8.06,0,0,1-3.07.94c-7.87.77-15.86,0.2-23.92,0.2v-61.49h71v25.29Z" transform="translate(0 45.98)" style="fill:#c6c6c6"/><path d="M1152.58,997.59v10.17h-71V997.59h71Z" transform="translate(0 45.98)" style="fill:#c6c6c6"/><path d="M1084.62,925.48c4.94,0.52,9.12,5.91,8.93,10.87-0.23,5.82-4.45,10.51-9.92,10.9-6.94.5-13.32-1-18.86-5.43-1.39-1.11-3-2-4.45-3l-0.72-.26C1064.28,928.87,1074.19,924.39,1084.62,925.48Z" transform="translate(0 45.98)" style="fill:#c6c6c6"/><path d="M1093.53,900.63c0.15,5.65-4.84,11.19-10.39,11.35a33.26,33.26,0,0,1-14.95-3.26c-3.66-1.66-5.76-5.11-9.35-6.6l-0.46-.33c6-8.47,14.24-12.16,24.76-11.94C1089.45,890,1093.36,894.39,1093.53,900.63Z" transform="translate(0 45.98)" style="fill:#c6c6c6"/><circle cx="1037.99" cy="671.24" r="4.94" style="fill:#c6c6c6"/><path d="M1019.16,439.4c1.2,0.91,1,2.22,1,3.47-0.91,25.54-1.64,51.1-6,76.38-0.33,1.92-.52,3.92-2,5.45l-0.54,1.47a32.81,32.81,0,0,1-17.18-15.41c-10.63-21.25-3.54-45.34,12-62.34,1.42-.71,2.13-2.13,3.54-3.54a51.94,51.94,0,0,0,7.18-5.55Z" transform="translate(0 45.98)" style="fill:#c6c6c6"/><path d="M984.1,308.76c1.52,1.15,1.3,2.81,1.25,4.39-1.15,32.28-2.08,64.56-7.52,96.49-0.42,2.43-.65,5-2.49,6.89l-1.48.8A43.14,43.14,0,0,1,967.2,414c-6.5-4-12.24-9.24-14.9-16.32-7-18.54-5.37-37.14,2.45-55a79.79,79.79,0,0,1,27.55-33.76l0.28-.2Z" transform="translate(0 45.98)" style="fill:#c6c6c6"/><path d="M1878.88,186.57c20.47-7.52,40.82-15.39,61.48-22.36,6.88-2.32,14.54-3.06,21.86-3.18,19.35-.33,34.73,8.76,48.27,21.76,13.34,12.81,23.08,28.28,32.48,43.93,9.15,15.23,17.62,30.87,26.41,46.32a40.24,40.24,0,0,1,5,15c0.72,5.8-2.81,9.95-8.77,10-4.18,0-8.37-.23-12.53-0.6-11.09-1-16.89,6.86-15.09,18.83,1,6.77,3.42,13.08,5.77,19.38,4.06,10.85,2.34,21.17-2,31.35-6,14.11-16.27,25.15-26.31,36.34-8.3,9.27-17.06,18.14-24.42,28.22-6.06,8.31-2.14,17,8.14,18.19,1.47,0.16,3,.33,4.4.4,4.92,0.28,10.3-.17,13,4.66a26.61,26.61,0,0,1,2.82,17.49c-1.37,9-4.85,17.39-6.45,26.29-1.53,8.5,0,16.61,3.2,24.42,3.46,8.34,11.14,9.93,18.76,9.88,10.55-.06,16.89,5.07,21.34,13.93a23.87,23.87,0,0,1-2.15,25.54c-12.26,16.86-29.68,24.78-50.5,23.17-11-.86-19.45-7.42-27.06-15.38-9.1-9.52-13.95-21.44-19.84-32.74-7.9-15.13-16.18-29.72-31.44-38.79a70.56,70.56,0,0,0-33.21-10c-22.56-1.09-42.62,5.58-60.82,18.77a66.37,66.37,0,0,0-17.12,18.36,94.68,94.68,0,0,0-8.54,17.4c-9.71,25.69-11.92,52.43-11.27,79.58" transform="translate(0 45.98)" style="fill:none;stroke:#898989;stroke-miterlimit:10;stroke-width:4px"/><path d="M1509.18,107c6.63-13.21,18.08-20.68,30.56-27.82,16.58-9.49,32.25-20.49,46-34.07,7.3-7.2,12.72-15.75,17.25-24.37l0.26-.49c3.27-6.3.36-15-3.92-21.61-8.71-13.34-22.14-20.11-36.94-23.7-19.91-4.83-38.83.16-55.45,10.92-0.41.27-.82,0.55-1.23,0.84-6.09,4.34-11.29,11-15.53,18.05a58.44,58.44,0,0,0-3.95,7.8c-5.52,13.4-5.17,27.3-2.93,41.84,1.92,12.43,7.4,23.22,13.44,33.74,3.73,6.5,7.28,13.1,10.74,19.74,6.48,12.41,12.66,25,19.15,37.38,20.7,39.57,41,79.33,61.47,119,2.56,5,4.68,10.23,7.6,15,5.68,9.27,2.85,19.64-12.6,18.8-12.38-.67-17.37,4.07-18.28,16.32-1.13,15.1-2.2,30.14.76,45.12,4.78,24.22,13.89,37.28,38.2,43.24,8.5,2.08,17,4.16,25.4,6.67l0.33,0.1" transform="translate(0 45.98)" style="fill:none;stroke:#898989;stroke-miterlimit:10;stroke-width:4px"/><path d="M1343.77,315.65c-5.31-2.05-8-7.13-11.74-10.82-16-15.68-35.34-25.35-55.94-33-12.4-4.61-24.7-9.27-35.75-16.88-16.83-11.59-26.54-27.35-27.33-47.68-0.5-12.89,2.71-25.55,7.4-37.56,9.56-24.54,20.18-48.68,29.17-73.41,6.75-18.59,10.47-37.84,3.39-57.6-6.59-18.37-18.91-32.24-35.27-41.75C1192.08-18,1164.92-20.92,1137-8.94c-16.39,7-27.24,19.89-36.29,34.51-11.77,19-22.07,38.85-32,58.88-4.54,9.17-3.2,16.5,3.79,19.93,2.35,1.15,5.36,1.1,8.09,1.32,2.49,0.21,5-.1,7.52.07,6.6,0.45,9.93,4,10,10.63,0,2.71,0,5.43,0,8.14" transform="translate(0 45.98)" style="fill:none;stroke:#898989;stroke-miterlimit:10;stroke-width:4px"/><path d="M1774.87,367.66a124.1,124.1,0,0,0,.7-19.4c0-2.31-.09-4.61-0.09-6.91q0-49.51,0-99c0-8.14,0-8.15-8.15-8.15H1629.5c-8.14,0-8.15,0-8.15,8.15V361.39c0,8.13,0,8.15,8.15,8.15h145.37q27.26,0,54.51,0c7.47,0,12.53-4.34,12.53-10.65,0-6.48-4.87-10.63-12.53-10.65-10.65,0-21.34.5-32-.18-6.95-.44-13.79.13-20.69,0.18" transform="translate(0 45.98)" style="fill:none;stroke:#898989;stroke-miterlimit:10;stroke-width:4px"/><path d="M1174.59,394a77.44,77.44,0,0,1-25.29,14.86,138.72,138.72,0,0,1-26.1,6.41,347.79,347.79,0,0,1-52.63,3.83c-26.42.15-50.84,7.07-72,23.25-13.08,10-22.14,23.59-30.87,37.44-14.44,22.91-25.48,47.67-39.24,70.94-2.87,4.85-4.51,10.65-5.65,16.24-2,9.9,5.17,17.68,16.16,18.12,4,0.16,8-.33,11.9.09,10.27,1.1,15.38,9.12,18.4,20.28,3.58,10.16,6.08,17.33,5.85,25.48" transform="translate(0 45.98)" style="fill:none;stroke:#898989;stroke-miterlimit:10;stroke-width:4px"/><path d="M1353.79,327.56c2.76-1.42,6-1.07,8.74-2,10.38-3.38,16.49-12.88,17-24.34,0.59-12.3-1.45-24.3-3.24-36.34-2.78-18.67-3.88-37.53,1.48-55.71,9.33-31.65,31.9-49.14,63.73-55.14,21.24-4,41.64-.29,58.66,12.76,16.51,12.66,25.91,30.46,27.86,51.72,0.62,6.72,2.14,13.35,3,20.06,1.42,10.5,5.88,19.64,11.89,28.22,4.39,6.26,3.34,9-3.73,11.25-6,1.9-6.77,3.4-6.33,9.41,0.81,11.07,3.77,21.85,2.73,33.22-1.88,20.51-11.44,27.61-30.87,28.18-7.72.23-15.62-.5-23.14,0.84-11,2-18.72,9.07-21.84,19.87-2.93,10.15.89,19.08,7.41,26.89,11.1,13.31,26.55,18.48,42.58,22.59" transform="translate(0 45.98)" style="fill:none;stroke:#898989;stroke-miterlimit:10;stroke-width:4px"/><path d="M1355.67,75.66c-9-7.33-19.65-9.1-30.7-8.69-16.76.62-32.67,4.36-43.77,18.17-13.54,16.85-19.23,36-13.86,57.57,3.41,13.75,12.92,20.83,26.32,23.12,6.19,1.06,12.58,1,18.77,2,9.23,1.61,15.71,8.56,17.6,18.07,2.76,13.77.62,27.25-1.92,40.74-1.76,9.38-5.31,18.42-5,28.2,0.27,10.17,3.76,13.77,13.81,13.79,2.51,0,5-.06,7.52,0,14.86,0.41,16.72,9.9,13.63,20-3.16,10.29-8.68,19.65-14.52,28.79l1.45,1.45c2.89,3,5.6,6,8.18,9.2,9.63,11.83,17.26,24.94,24.47,38.31,5,9.29,10.54,18.23,16.29,27l2.05,3.14c6.76,10.25,13.76,20.34,20.48,30.61,11.08,16.93,21.8,34.12,30,52.66,3.76,8.52,5.14,17.87,1.86,26.84-4.39,12-16.83,16.56-31.21,12.61-1.36-.38-2.68-0.79-4-1.25-16.4-5.85-26.11-18.4-32.36-34.49a96.3,96.3,0,0,1-5.67-24.43c-0.45-4.07-1.46-7.84-4.94-10.7-4.78-3.94-9.09-3.12-12.6,2.54-5.15,8.29-4.07,17.07-1.7,25.67a30.89,30.89,0,0,1,.42,14.44c-0.76,3.95-2.73,5.94-7.49,5.19s-10-.28-15-0.13c-6.74.19-10.3,3.63-10.65,10-0.23,4.19,1.27,7.64,4.1,9.73a11.51,11.51,0,0,0,5.93,2.11,41.35,41.35,0,0,1,10.65,1.95" transform="translate(0 45.98)" style="fill:none;stroke:#898989;stroke-miterlimit:10;stroke-width:4px"/><path d="M1048.53,127.68c-18.51,1.66-25.14,1-42.51,8.73-8.55,3.83-16.5,8.42-22.51,15.73-3.54,4.31-4.65,9.67-5.68,15-3.51,18.26-1.94,36.38,1.23,54.52,4.6,26.31,8.26,52.72,7,79.57-0.15,3.2-.67,5.36-3.47,7.44l-0.28.2a79.79,79.79,0,0,0-27.55,33.76c-7.82,17.89-9.41,36.5-2.45,55,2.66,7.08,8.4,12.33,14.9,16.32a43.14,43.14,0,0,0,6.65,3.33c13,5.16,27.71,3.53,37.2-4.56,10.77-9.17,16.74-21.13,20.74-34.44,5.76-19.18,2.16-37.77-2.54-56.42-3.26-12.94-5.49-26.13-4.21-39.45,0.62-6.36,3.46-12.44,6.64-18.22,8.73-15.87,8.94-33,5.43-50-1.11-5.41-3.17-10.76-4.15-16.34-2.41-13.62,1.95-17.31,15.69-16.85a50.36,50.36,0,0,1,10.65,1.85c5.41,1.37,9.29-4.68,13.1-8.81" transform="translate(0 45.98)" style="fill:none;stroke:#898989;stroke-miterlimit:10;stroke-width:4px"/><path d="M1974.12,331.94c-8.4-3.73-14.23-10.83-21.26-16.34-19.86-15.57-35.55-35.48-54-52.5-10-9.23-21.49-16.16-35.64-17-20.2-1.18-38.15,4.62-53.22,18.19-17.77,16-25.27,36.81-27,60.12-0.24,3.34-.42,6.68-0.63,10-0.27,4.26.73,8,4.39,10.65" transform="translate(0 45.98)" style="fill:none;stroke:#898989;stroke-miterlimit:10;stroke-width:4px"/><path d="M1500.19,166.81c5.61,4.76,8.52,18.17,8,22.3-1.55,13.25-9.54,21.75-19.11,29.4-13.43,10.73-29.4,17.27-43.86,26.31-10.36,6.48-20.38,13.25-26.3,24.46-4.35,8.23-5.62,17.29-6.16,26.33-1,16.9-1.34,33.83-2,50.74-0.56,14.35-3.52,28.05-10.54,40.78-1.38,2.5-2.66,4.75-5.11,6.21" transform="translate(0 45.98)" style="fill:none;stroke:#898989;stroke-miterlimit:10;stroke-width:4px"/><path d="M1890.77,435.88c3.25,2.21,6.75,6.41,4.65,9.91-6.31,16.1-25.91,19.6-40.61,25.91-10.5,4.2-19.6,9.8-26.6,18.9-11.21,14.71-17.51,30.11-25.91,46.21-11.21,18.91-21.71,37.81-34.2,55.31" transform="translate(0 45.98)" style="fill:none;stroke:#898989;stroke-miterlimit:10;stroke-width:4px"/><path d="M1395.15,397.11c-8.64,9.87-12.89,46.15-25,51.33" transform="translate(0 45.98)" style="fill:none;stroke:#898989;stroke-miterlimit:10;stroke-width:4px"/><path d="M1343.77,320c-7.1,13-13.84,26.11-21.38,38.81-12.77,21.5-29.4,38.21-52.23,46.82a96.27,96.27,0,0,1-13.49,4c-25.07,5.45-49.07,3.51-71.42-9.1q-1.88-1.05-3.74-2.21a68.71,68.71,0,0,1-6.29-5" transform="translate(0 45.98)" style="fill:none;stroke:#898989;stroke-miterlimit:10;stroke-width:4px"/><path d="M1998.62,860.55c6.06-7.42,11.7-15.22,20.3-20.14a53.08,53.08,0,0,1,23.7-7c8.84-.53,16.19,6.69,18,13,2.17,7.47-1.55,17.23-8,21.07-17.31,10.27-40.68,5.65-54.2-6.7l-0.43-.39c-15.73-14.78-20.46-32.23-14-52.77a20,20,0,0,1,1.06-2.95,29.17,29.17,0,0,1,1.73-2.68c13.74,9.61,28.71,12.86,45.35,8.6,10.58-2.7,18.11-11.67,14.87-23.47-2.69-9.82-12.09-15.83-23.24-13.29-10,2.27-19.35,6.07-26.88,13.67a91.75,91.75,0,0,0-10.86,14v0c-9.56-9-15.83-19.31-17.85-32.54-2.08-13.59-3.28-27.31-7.45-40.6-8.6-27.38-27-45-53-55.63a134.59,134.59,0,0,0-53-9.92" transform="translate(0 45.98)" style="fill:none;stroke:#898989;stroke-miterlimit:10;stroke-width:4px"/><path d="M1986.33,402.67c0.11,9.51-9,16.51-16.69,20.71-6.3,2.8-12.6,5.6-19.6,3.5-4.25-1.06-8.1-3.34-12.16-3.76a11.35,11.35,0,0,0-3.95.26c-19.9,4.8-37.78,10.28-57.6,13.79l-1.22.22c-4.2.7-8.4,0.7-12.6,1.4-5.36,1.08-10.53,2-15.6,3-11.48,2.15-22.46,4.35-34.12,8.24-1.31,0-2.35,1.09-3.29,2.43-0.56.79-1.09,1.69-1.62,2.47-6.3,13.3-15.4,23.1-23.8,35.7-2.8,4.9-6.3,8.4-8.4,13.3a30.41,30.41,0,0,1-4.2,4.9c-1.13,2.24-2.69,4.48-4,6.73-0.32.55-.63,1.11-0.91,1.67q-2.14,3-4.24,5.89c-2.2,3-4.37,6-6.53,8.89-6.64,9-13.18,17.65-20,27.23-9.76,12.36-19.52,23.51-28.66,35.49q-1.05,1.37-2.08,2.76" transform="translate(0 45.98)" style="fill:none;stroke:#898989;stroke-miterlimit:10;stroke-width:4px"/><path d="M1327.47,561.91c-2.85,5.72-5.65,12-.74,16.92,2.8,2.1,5.6,2.8,9.1,3.5,34.31,1.4,68.62-3.5,102,5h5.08l3.24,0.79" transform="translate(0 45.98)" style="fill:none;stroke:#898989;stroke-miterlimit:10;stroke-width:4px"/><path d="M1408.93,78.17A50.84,50.84,0,0,0,1395,103.83c-3.54,15.88,9.22,26,19.62,22.7,8.77-2.78,14.3-12.1,11.81-22.65-2.64-11.16-8.37-20.59-16.29-27-9.17-7.4-21.3-10.73-35-7.94a40,40,0,0,0-17.3,7.86c-7,5.56-11.84,13.53-14.61,23.31-1.63,5.75-2.77,11.68.5,17.55,4,7.25,11.74,11.22,19.47,8.74s12.21-10.14,11.29-18.79c-1.25-11.76-5.86-21.77-15.05-29.45" transform="translate(0 45.98)" style="fill:none;stroke:#898989;stroke-miterlimit:10;stroke-width:4px"/><path d="M1999.19,862.74a42.08,42.08,0,0,0-1.93,35.85c3.39,8.8,8.2,16.17,14.7,21.75a46.37,46.37,0,0,0,17.57,9.34c13,3.76,26.11,4.2,37.82-4,7.59-5.31,9-13.62,5.19-22a18.4,18.4,0,0,0-20.88-10.49c-14.57,3.15-27.15,9.84-35.85,22.54-1,1.47-2.27,2.76-3.41,4.12" transform="translate(0 45.98)" style="fill:none;stroke:#898989;stroke-miterlimit:10;stroke-width:4px"/><path d="M1121,217.18s-5.33,27.08-14.66,34.59c-15.75,12.7-34.55,18.72-53.27,25.09-7.12,2.43-14.53,4-21.36,7.38-1.6.79-3.72,0.5-5.6,0.71" transform="translate(0 45.98)" style="fill:none;stroke:#898989;stroke-miterlimit:10;stroke-width:4px"/><path d="M1505.43-13.94c-2.29-6.5-3.36-13.29-9.28-18.31-8.37-7.1-20.73-9.59-29.54-4.19-11.11,6.8-15.41,17.41-12.46,29.38,2.68,10.88,13.25,18.79,24.33,18.87,2.08,0,4.29-.74,6.27.58" transform="translate(0 45.98)" style="fill:none;stroke:#898989;stroke-miterlimit:10;stroke-width:4px"/><path d="M984.1,308.76c1.52,1.15,1.3,2.81,1.25,4.39-1.15,32.28-2.08,64.56-7.52,96.49-0.42,2.43-.65,5-2.49,6.89" transform="translate(0 45.98)" style="fill:none;stroke:#898989;stroke-miterlimit:10;stroke-width:4px"/><path d="M1808.37,451.54c-4.08-1.92-8,.11-11.87.79-5.51,1-10.65,2.2-16.51,1.52l-0.48-.06c-5.41-.71-11.28,1.54-16.86,2.81-12.35,2.81-24.66,5.81-37,8.73" transform="translate(0 45.98)" style="fill:none;stroke:#898989;stroke-miterlimit:10;stroke-width:4px"/><path d="M1897.35,416.45c2-2.54,5.45-4.35,6.09-7.57a6.61,6.61,0,0,0-.45-3.71c-0.51-1.3-.4-3.12-1.89-3.72-3.58-1.44-6.4-4.57-9.87-6.22a9.93,9.93,0,0,0-5.77-1c-3.49.47-6.69-.73-10-1.06-16.27-1.6-26.62,8.26-36.25,19-5.77,6.4-10.42,13.79-15.85,20.52a10.94,10.94,0,0,0-2.42,5.71" transform="translate(0 45.98)" style="fill:none;stroke:#898989;stroke-miterlimit:10;stroke-width:4px"/><path d="M1603.8,21.15c5.11,4.75,4.7,11.7,6.74,17.6,3.9,11.29,6.57,23,13.28,33.18,2.26,3.43-.29,7.39-5,8.12-11,1.73-11,1.73-9.41,13.16a111.17,111.17,0,0,1,.53,22.55c-0.8,12.67-8.59,21.16-21.84,24.38a78.28,78.28,0,0,1-11.88,2.08C1560,143.59,1557,158,1561.93,171.49c3.3,9,11,13.1,19.95,15.08a80,80,0,0,0,17.54,1.93c29-.11,58.06,0,87.09-0.11,8.13,0,16.22-.94,23.82-4.31,8.39-3.73,14.6-12,10.72-23.85-1.89-5.78-6.23-8.28-11.36-10-6.79-2.23-14.13-3.63-19.92-7.72C1679.1,135,1676,124,1678.4,111.39c1.54-8,4.36-15.63,5.09-23.81,0.3-3.4.69-6.65-.07-10-1.67-7.45-3.85-9.41-11.32-9.36-2.93,0-5.84.47-8.77,0.58-5.73.21-8.51-2.48-8.79-8.13a30.87,30.87,0,0,1,3.75-15.68c8.5-16.85,15.66-34.34,25.09-50.74,10.45-18.18,24.58-31.83,45.76-36.29,26.64-5.6,50.06,1.27,70.15,19.4,21.7,19.58,24.28,44.21,17.47,70.75-5.19,20.26-14.32,39.13-22.55,58.26-11.46,26.62-3.06,50.35,17.65,65.8,14.82,11.06,31.59,16.66,50.11,16.22,5.45-.13,10.86-1.57,16.29-2.4" transform="translate(0 45.98)" style="fill:none;stroke:#898989;stroke-miterlimit:10;stroke-width:4px"/><path d="M1048.53,127.68c4.48,2.87,6.23,8.34,2.91,12.59-8.63,1.15-17.77.33-26.64,3-8.59,2.56-17.22,4.75-23.77,11.4-1,1-2.1.4-3.15,0.6" transform="translate(0 45.98)" style="fill:none;stroke:#898989;stroke-miterlimit:10;stroke-width:4px"/><path d="M1072.38,174.06c-0.39-2-1.65-3.75-2.81-6.28h-1.5c-7.32,0-14.94-.1-22.56,0a50.66,50.66,0,0,0-29.45,9.37" transform="translate(0 45.98)" style="fill:none;stroke:#898989;stroke-miterlimit:10;stroke-width:4px"/><path d="M1827.49,283.07c-7.84,12.23-11.79,25.77-13.08,40.1-0.27,2.92-1,6.23,1.25,8.71,1.52,1.7,3.8,3.75,6.13,2.44,3.11-1.76,6.8-3.15,7.06-8,0.54-10.27,3.31-20,7.36-29.49,1.6-3.73,3.21-7.3,6.33-10" transform="translate(0 45.98)" style="fill:none;stroke:#898989;stroke-miterlimit:10;stroke-width:4px"/><path d="M1068.07,167.77c-1-10.7-3.83-13.87-15.7-14.25l-1.23,0c-13.72-.21-27.21,1.72-39.46,8.67a25.45,25.45,0,0,0-3.15,2.48" transform="translate(0 45.98)" style="fill:none;stroke:#898989;stroke-miterlimit:10;stroke-width:4px"/><path d="M1815,279.31c-4.38,5.79-6.87,13-11,18.54-8.86,12-9.27,25.58-10.8,39.13-0.38,3.42-1.32,6-3.89,8.13" transform="translate(0 45.98)" style="fill:none;stroke:#898989;stroke-miterlimit:10;stroke-width:4px"/><path d="M1928.06,410.81c-0.75,2-2.34,2.62-4.36,3.22q-12.24,3.57-24.61,6.77c-5.85,1.52-11.72,3-17.55,4.39-4.35,1-8.77,2.08-13.22,3.08-5.73,1.3-11.5,2.54-17.24,3.68-8.15,1.62-16.34,4.3-24.53,6.43l-5.28,1.37c-12,3.13-24,6.26-36.09,9.2-2.22.54-4.14,0.86-5,3.22" transform="translate(0 45.98)" style="fill:none;stroke:#898989;stroke-miterlimit:10;stroke-width:4px"/><path d="M1803.06,303.12c2.28,3,.29,6.27.57,9.41,0.45,5-.52,10.05.67,15,1.35,5.65,4.42,7,10,4.39" transform="translate(0 45.98)" style="fill:none;stroke:#898989;stroke-miterlimit:10;stroke-width:4px"/><path d="M1898.61,419a4.3,4.3,0,0,0-2.26-2.46,13.14,13.14,0,0,0-2.72-.83c-6.3-1.46-12.45-3.58-18.69-5.3l-2.68-.71c-2.13-.54-5.24-1.07-6.76.62-5.65,6.25-12.94,11.44-14.52,20.58" transform="translate(0 45.98)" style="fill:none;stroke:#898989;stroke-miterlimit:10;stroke-width:4px"/><path d="M1936.2,411.44a1.26,1.26,0,0,0,.6,0c7.51-12.09,18.29-13.86,30.7-9.31,6.23,2.29,12.15.18,18.2-.13,1.66-.09,2.32-1.8,3.13-3.08" transform="translate(0 45.98)" style="fill:none;stroke:#898989;stroke-miterlimit:10;stroke-width:4px"/><path d="M1930.56,409.56a8.25,8.25,0,0,1,1.28-2.47c3-2.78,4.43-6.22,3-10-1.78-4.8-6-5.33-10.56-5.07q-5.36.3-10.72,0.54c-5.41.26-10.82,0.48-16.22,0.74a6.85,6.85,0,0,0-4.39,1.88" transform="translate(0 45.98)" style="fill:none;stroke:#898989;stroke-miterlimit:10;stroke-width:4px"/><path d="M1436.5,67.52c-9.12,1.41-18.44,2.35-25.06,10" transform="translate(0 45.98)" style="fill:none;stroke:#898989;stroke-miterlimit:10;stroke-width:4px"/><path d="M1326.22,516.79c-5,3-8.93,6.29-8.3,13.18,0.42,4.56,4.17,6.22,6.11,9.38" transform="translate(0 45.98)" style="fill:none;stroke:#898989;stroke-miterlimit:10;stroke-width:4px"/><path d="M1343.77,541.23c-4.18-.63-8.34-1.44-12.54-1.84a14.5,14.5,0,0,0-6.62.84c-4,1.54-6.56,4.9-6.45,9.15a12,12,0,0,0,9.45,11.78,12.45,12.45,0,0,0,3.65.27c4.12-.32,8.34.69,12.52,1.11" transform="translate(0 45.98)" style="fill:none;stroke:#898989;stroke-miterlimit:10;stroke-width:4px"/><path d="M1876.67,439c-5.26,7.22-13.35,9.15-21.34,10.41a6.92,6.92,0,0,1-8.1-6" transform="translate(0 45.98)" style="fill:none;stroke:#898989;stroke-miterlimit:10;stroke-width:4px"/><path d="M1874.8,412.07c-2.4,4.75-6.75,8.57-6.89,14.41" transform="translate(0 45.98)" style="fill:none;stroke:#898989;stroke-miterlimit:10;stroke-width:4px"/><path d="M1916.15,405.8c3.42,3.2,8.15,2.71,12.23,4l0.4,0.13,1.49,0.51c6.65,2.25,6.91,2.27,7.81,11" transform="translate(0 45.98)" style="fill:none;stroke:#898989;stroke-miterlimit:10;stroke-width:4px"/><path d="M1913.64,393.9c1.24,3,3.9,5.5,2.57,9.42a17.09,17.09,0,0,1-1,2.46c-1.77,3.38-4.39,4-11,3.16" transform="translate(0 45.98)" style="fill:none;stroke:#898989;stroke-miterlimit:10;stroke-width:4px"/><path d="M1052.4,140.83c6,4,2.23,7.93,0,11.91" transform="translate(0 45.98)" style="fill:none;stroke:#898989;stroke-miterlimit:10;stroke-width:4px"/><path d="M1169.93,506.85c-11.59,10.35-25.79,14.48-40.67,16.84a276.78,276.78,0,0,1-41.66,3c-20.91.11-40.25,5.6-57,18.4-10.35,7.93-17.53,18.67-24.43,29.64-11.43,18.13-20.17,37.72-31.06,56.15a42.11,42.11,0,0,0-4.48,12.85c-1.62,7.83,4.09,14,12.79,14.35,2.47,0.1,5,0,7.44,0,9.89,0.23,16.16,7.18,14.28,16.83-2.78,14.31-4.22,28.79-6.14,43.2-1.36,10.11-2.09,20.41.16,30.75,2.31,10.63,8.32,17,18.45,20.42,6.49,2.21,13.08,4.24,18.94,8.23,7.42,5.05,9.48,12.48,9.22,20.42-0.52,15.76-8.66,28.62-17.22,41.17-12.17,17.85-26,34.61-37,53.17-7.2,12.11-12,25.42-8.57,40.05,2.13,9,6.92,16.78,12.86,23.82,9.07,10.75,20.32,19.36,29.73,29.78,6.5,7.2,12.5,14.68,15.51,24.25,1.94,6.17.81,11.72-2.2,16.83-3.38,5.74-9.42,6.2-15.26,5.45-10.18-1.32-12.74,4.39-14.37,12-1.23,5.73-.1,11.57,1.66,16.79,3.58,10.61,4.09,21.35,3.77,32.3" transform="translate(0 45.98)" style="fill:none;stroke:#898989;stroke-miterlimit:10;stroke-width:4px"/><path d="M1509.81,419.06c0.72,10.33-16.57,10.24-23.65,12.36-2.83,1.42-5.67,3.54-6.38,7.08-2.83,19.13-4.25,39,5,56.67,0.71,0.71,0,2.13.71,2.83,11.33,18.42,34,15.59,51,23.38,9.71,4.45,15,12.6,19.26,21.66,3.18,6.82,5.74,14.15,9.08,20.84,1.42,2.83,3.54,4.25,5.67,6.38,4.36,4,10.41,6.89,15.27,10.46,4.59,3.4,8.11,7.42,8.11,13.62,0.71,4.25-3.54,9.21-8.5,9.92-12,2.13-31.17-2.13-31.17,14.88,0,16.29,7.08,36.13-9.21,47.46-1.42.71-3.54,1.42-5,2.13-11.33,4.25-23.38,0-35.42,2.83a27.77,27.77,0,0,0-16.29,12c-7.08,12-7.08,27.63,5,36.84,6.38,5,14.17,7.08,22,7.79,12.75,0.71,22.67-7.79,31.17-16.29,2.13-2.83,5-5.67,7.08-8.5,31.88-43.92,62.34-80.05,92.8-125.39,5-7.79,9.92-14.88,14.88-22.67a8,8,0,0,1,.28-2.42" transform="translate(0 45.98)" style="fill:none;stroke:#898989;stroke-miterlimit:10;stroke-width:4px"/><path d="M1821.3,530.08c-1.47,1.94-2.89,4.07-5,5.48a8.74,8.74,0,0,0-.76,1.06c-2.74,4.47-2.23,11.85,4.3,13.81,5.67,1.42,11.33-.71,15.59,2.83s4.25,9.92,3.54,14.88c-2.13,12-7.79,23.38-5,36.13,0.71,3.54,2.83,6.38,5,9.21,5,4.25,12,2.83,18.42,5,10.63,2.83,15.59,16.29,10.63,26.21-8.5,16.29-27.63,25.5-45.34,20.54-24.09-6.38-29.75-31.88-41.8-51.72-11.33-17-30.46-25.5-50.3-24.09a70.63,70.63,0,0,0-23.44,5.31,47.39,47.39,0,0,0-4.9,2.49c-0.71.71-2.13,0-2.83,0.71-10.63,6.38-19.13,13.46-25.5,24.09-0.71.71,0,2.13-.71,2.83-16.29,31.88-12.75,67.3-17.71,102,0,2.83,1.42,4.25,3.54,5.67,7.08,2.83,13.46-2.13,19.84-5.67,1.42-.71,3.54-1.42,5-2.13,16.29-5,17.71,17,24.79,27.63a67.17,67.17,0,0,0,14.17,14.17c9.21,5.67,19.84,7.08,29.75,2.83,12.75-5.67,21.25-16.29,31.17-25.5,7.79-6.38,16.29-12.75,26.92-12,14.88,2.13,21.25,15.59,28.34,27.63,12.23,22.44,23.17,44.21,35.93,65.35,0.53,0.89,1.07,1.78,1.62,2.66a24,24,0,0,1,2.41.33c14.85,2.79,23.59,18.87,19.55,33.67-4.25,11.33-16.29,15.59-27.63,17.71h-3.54c-2.13.71-3.54,1.42-5.67,1.42-18.42,1.42-37.55,0-54.55,9.92-10.63,6.38-17.71,15.59-24.09,26.21-2.32,4.26-4.65,8.41-6.91,12.53-6,11-11.64,21.67-15.76,33.52-1.42,3.54-2.83,7.79,0,10.63,5,3.54,12,2.13,17.71,4.25,6.38,2.83,5.67,9.92,5,15.59-3.54,14.88-14.17,34.71,1.42,43.92,7.08,4.25,15.59,4.25,21.25,9.92,5.67,7.08,5,17.71-3.54,23.38-5,7.08-3.54,16.29-3.81,24.13" transform="translate(0 45.98)" style="fill:none;stroke:#898989;stroke-miterlimit:10;stroke-width:4px"/><path d="M1331.61,944.28a171.67,171.67,0,0,1-21.28-30.71h0c-6.16-11-11.5-22.65-16.86-34.42-0.71-1.42,0-2.13-.71-3.54-5.67-13.46-12-28.34-7.08-42.51a15.49,15.49,0,0,0,2.13-3.54c2.83-3.54,7.08-4.25,11.33-3.54,8.5,2.13,13.46,9.21,18.42,16.29,5.67,7.08,12,12,21.25,12.75,7.08,0.71,13.46-2.83,18.42-7.08,7.08-7.08,14.17-16.29,25.5-14.17,7.08,1.42,11.33,7.79,16.29,12,5,5.67,9.92,15.59,19.13,12,9.92-15.59,0-34-1.42-51-0.71-12.75,2.83-24.09,4.25-36.84,1.42-9.92-.71-19.84-5-29-5.67-14.88-17-26.21-31.17-34-0.71-.71-2.13,0-2.83-0.71-13.46-7.79-29.75-7.08-43.92-2.83a34.54,34.54,0,0,1-5,2.13c-11.33,5.67-21.25,14.88-26.21,26.92-7.08,17.71-5.67,50.3-31.88,48.17-8.5-.71-10.63-10.63-9.21-18.42a260.84,260.84,0,0,1,12.75-35.42c0.71-1.42,0-2.13.71-3.54,5.67-12,10.63-25.5,9.92-39,0-2.83-2.83-4.25-5.67-5-8.5-.71-18.42,2.13-26.21-3.54-6-5.36-5.72-12.63-5.67-20,0-.42,0-0.84,0-1.25,0.71-12,1.62-128.78-.27-141" transform="translate(0 45.98)" style="fill:none;stroke:#898989;stroke-miterlimit:10;stroke-width:4px"/><path d="M1103,677c2.53-2.26,3.1-5.59,4.4-8.46,6.5-14.4,16.92-25.11,30.31-33.22s27.88-10.94,43.15-9.78c10.29,0.78,20.18,3.35,28.83,9.73,6.09,4.48,10.51,9.6,11.41,17.43a32.94,32.94,0,0,0,2.69,9.1c1.09,2.58,2.31,5.12,3.27,7.74,6.12,16.63,12.63,33.11,20.26,49.13,2.47,5.17,2.32,6.91-3,8.24-7.08,1.75-7.87,6-7.47,12.1,0.64,10.08-.34,20.17-0.89,30.25s-12.67,19.33-22.83,19.36a51.38,51.38,0,0,0-22.9,5.75c-11.58,5.67-11.55,16.9-8.19,25.41,4,10.06,10.36,18.9,17.75,26.8,14.06,15,28.61,29.59,42.55,44.73,17,18.46,34.09,36.85,49.19,57,3.73,5,8,9.56,12,14.41-9.89,8.59-14.74,20.13-19.56,31.72a100.43,100.43,0,0,1-5.43,10.43c-4.77,8.49-12.74,11.71-21.78,13.48-5.24,1-10.34,2.86-13.41,7.86a7.82,7.82,0,0,0,.11,8.85c3.92,5.37,9.16,8.69,16.26,8.57,6.12-.11,12.23-0.24,18.38.78,4.31,0.72,6.44,2.71,8,6.56,2,5,2.34,10.34,2.17,15.4-0.23,6.62.06,13.24-.27,19.85" transform="translate(0 45.98)" style="fill:none;stroke:#898989;stroke-miterlimit:10;stroke-width:4px"/><path d="M1523.54,774.17c-0.13-3-2.13-6.13-3.64-8.64-6.31-10.36-16.81-16.31-26.86-22.47-10.62-6.52-20.76-13.95-29.36-23-9.31-9.83-16.05-21.48-22-33.57-3.07-6.26-6-12.6-9-18.87-3-6.08-5.84-12.27-7.2-18.93-0.84-4.14-2-11,4.22-11,3.07,0,5.89,1.4,9,1.27a11,11,0,0,0,5.84-1.68c3.17-2.19,3.88-6.23,3.83-9.83-0.09-6.71-2.31-13.16-3.88-19.62-1.64-6.77-1.92-13.5,1.67-19.72a26,26,0,0,1,11.64-10.34c5-2.36,10.44-3.27,15.51-5.38a28.36,28.36,0,0,0,12.89-10c3-4.47,3.78-10.54.91-15.3-3.07-5.11-10.36-8.15-15.63-10.31-13-5.34-26.94-7.43-40.39-11.19l-18-7.52" transform="translate(0 45.98)" style="fill:none;stroke:#898989;stroke-miterlimit:10;stroke-width:4px"/><path d="M1726.14,540.58c5.84,6.23,5.8,7.81-.25,13.89-5,5.06-11.21,8.06-17.84,10.46-11.63,4.21-22.84,9.14-31.3,18.77-4.7,5.36-7.81,11.54-11,17.85-12,24.15-26.2,47-41.15,69.43-12.77,19.16-24.27,39.13-38.09,57.6-8.21,11-17,21.24-28.27,29.28-1.57,1.13-2.68,2.93-4,4.41" transform="translate(0 45.98)" style="fill:none;stroke:#898989;stroke-miterlimit:10;stroke-width:4px"/><path d="M1133.24,770.69a33,33,0,0,1-2.95-4Q1121,749.4,1111.93,732a122,122,0,0,1-9.44-24.79,27.78,27.78,0,0,0-4.5-9.9c-3.14-4.1-7.47-5.7-11.38-4.48-5.09,1.59-7.18,4.83-7.47,10.91-0.48,10.13,1.65,20,3.6,29.74,3.64,18.37,7,36.72,6.36,55.57-0.57,17.72-6.55,33.25-18.92,46.07-2.59,2.68-5.87,4.72-8.88,7-1.29,1-2.61,2.25-4.45,1" transform="translate(0 45.98)" style="fill:none;stroke:#898989;stroke-miterlimit:10;stroke-width:4px"/><path d="M1103.47,680.93a6.18,6.18,0,0,0-.94-3.86c-1.1-1.83-2.9-3.27-4.05-5-6.19-9.49-14.23-16.13-26.25-16.4-21.66-.5-41.92,11.34-42.69,37.7-0.63,21.72,6.6,41.22,16.44,60,6.61,12.6,14.41,24.8,17.63,38.75,3.74,16.22,2.1,31.94-6,47.22a23.68,23.68,0,0,1-2.11,3.31c-4.08,5.28-9.61,7.22-15.55,9.43" transform="translate(0 45.98)" style="fill:none;stroke:#898989;stroke-miterlimit:10;stroke-width:4px"/><path d="M1873.68,825.5a4.7,4.7,0,0,1-1,.24c-21.33.44-42.68,4.48-64,0-15.7-3.32-30.94-8.18-46.18-13.22-15.41-5.1-30.71-10.78-47.07-12.59-18-2-34.12,3-49.05,12.53-2.73,1.75-5.27,4.35-3.52,8.35" transform="translate(0 45.98)" style="fill:none;stroke:#898989;stroke-miterlimit:10;stroke-width:4px"/><path d="M1251.66,655.83c13.69,0.13,99.58-.65,113.19,1,12.38,1.5,23.58,6.18,32.82,14.64,8.81,8,15.49,18.43,20.38,29.24,5.19,11.46,8.77,23.41,15.73,34a89.22,89.22,0,0,0,12.12,14.78,90.87,90.87,0,0,0,7.45,6.56c2.26,1.78,5.6,3.37,6.69,6.18" transform="translate(0 45.98)" style="fill:none;stroke:#898989;stroke-miterlimit:10;stroke-width:4px"/><path d="M1878.64,829.22c0.06,4.14,2.84,7.47,3.44,11.41,2,13.42-5,20.79-17.82,21.25-9,.31-17.6-2.64-26.3-4.78-13.59-3.36-27.13-7.13-41.14-8.56a165.75,165.75,0,0,0-22.83-.65c-8.76.32-17.45-.52-25.38-5.62-5.66-3.64-11.84-7.16-19.26-5.61-5,1-9.14,3.88-13.38,6.48-3,1.86-5.87,4.1-9,5.89-5.26,3-5.67,2.9-10.39-1.45" transform="translate(0 45.98)" style="fill:none;stroke:#898989;stroke-miterlimit:10;stroke-width:4px"/><path d="M1052.17,423.61c-0.28,3.56-1.7,7.1-1,11.35,4.25,19.13,10.63,36.13,7.08,56-2.13,12-7.08,23.38-17,31.17-7.08,5-14.88,6.38-23.38,5.67a29.08,29.08,0,0,1-6.2-1.59,32.81,32.81,0,0,1-17.18-15.41c-10.63-21.25-3.54-45.34,12-62.34,1.42-.71,2.13-2.13,3.54-3.54a51.94,51.94,0,0,0,7.18-5.55,11.46,11.46,0,0,0,3.58-9.31" transform="translate(0 45.98)" style="fill:none;stroke:#898989;stroke-miterlimit:10;stroke-width:4px"/><path d="M1444.94,854c-1.09-1.7-.74-3.61-0.74-5.45q0-39.67,0-79.35c0-5.45,0-5.35,5.45-5.49,3.32-.09,6.6.39,10-0.81a3.2,3.2,0,0,1,.55-0.15c2.29-.49,4.77,1,6.79,2.07a88,88,0,0,0,47.65,10.78,67.55,67.55,0,0,0,9-1.09l0.29-.06a70.83,70.83,0,0,0,21.93-8.27c2.79-1.6,5.45-3.14,8.48-3.15a9.6,9.6,0,0,1,3.47.67c1,0.39,2.3.06,3.45,0.06H1654c1.52,1.6,1,3.61,1,5.45,0,15.88,0,31.74,0,47.61,0,1.66-.31,3.37.49,5" transform="translate(0 45.98)" style="fill:none;stroke:#898989;stroke-miterlimit:10;stroke-width:4px"/><path d="M1169.44,1079.17c2.9-23.75.83-47.61,1.52-71.41,0.41-14.16-9-21.76-21.36-21.48-24,.52-47.93.14-71.91,0.16-12.64,0-20.33,7.71-20.33,20.33v77.86" transform="translate(0 45.98)" style="fill:none;stroke:#898989;stroke-miterlimit:10;stroke-width:4px"/><path d="M1303.84,444.86c-5.62,10.25-11,24.14-16.92,34.18-9,15.14-20.4,27.27-35.52,34.57a74.13,74.13,0,0,1-16.49,5.63c-21,4.55-41,2.59-59.49-8.95a47.48,47.48,0,0,1-4.68-3.7l-0.3-.24" transform="translate(0 45.98)" style="fill:none;stroke:#898989;stroke-miterlimit:10;stroke-width:4px"/><path d="M1223,662.08a7.49,7.49,0,0,0-2.05,4c-2,14.84-8.38,27.32-20.78,36.19q-18.23,13-36.7,25.79c-11.87,8.15-22,17.72-26.73,31.78a39.74,39.74,0,0,0-2.1,11,41.28,41.28,0,0,0,1.83,13.89,52.27,52.27,0,0,1,.79,27.71c-3.1,12.57-11.44,20.49-22.37,26.26-9.28,4.9-19.38,7.6-29.25,10.95-7.67,2.6-15.14,5.6-21.86,10.35-12.74,9-14.49,30.27-4.92,40.21" transform="translate(0 45.98)" style="fill:none;stroke:#898989;stroke-miterlimit:10;stroke-width:4px"/><path d="M1211.59,1093.56q0.24-45.13.47-90.27c0-9.46-2.46-17.78-11.4-22.8a14.77,14.77,0,0,0-5.94-2,106.05,106.05,0,0,0-23.8.13c-3.43.45-6.59-.68-9.93-0.65q-30.25.22-60.51,0a127.17,127.17,0,0,1-20.34-1.41c-16.39-2.75-25.57-16.39-22.73-31.26a27.42,27.42,0,0,1,2.18-6.72c4.66-9.69,14.57-14.18,25-13.08,4.94,0.52,9.12,5.91,8.93,10.87-0.23,5.82-4.45,10.51-9.92,10.9-6.94.5-13.32-1-18.86-5.43-1.39-1.11-3-2-4.45-3" transform="translate(0 45.98)" style="fill:none;stroke:#898989;stroke-miterlimit:10;stroke-width:4px"/><path d="M1747.22,947.26a24.56,24.56,0,0,0,2.95-2.51,3.6,3.6,0,0,1,5-1c2.47,1.37,2.51,3.89,1.89,5.92-2,6.6-4.41,13.14-8.38,18.84-9.26,13.3-12.7,28.43-14.34,44.17-1.22,11.7-2.91,23.36-2.53,35.21,0.31,9.68,2.47,18.43,10.46,24.8,2.73,2.17,2.83,5.38,2.94,8.43,0.16,4.46,0,8.93,0,13.39" transform="translate(0 45.98)" style="fill:none;stroke:#898989;stroke-miterlimit:10;stroke-width:4px"/><path d="M1304.34,962.13c8.37-7.13,18-12,27.73-17l1.18-.6,0.2-.1c13.11-6.65,26.23-13.35,39.37-20,9.31-4.68,18.38-9.86,28.19-13.58,7.93-3,16.23-3.16,24.37-4.17a50.36,50.36,0,0,0,19.19-6.35c3.39-2,4.52-6.57,5.08-10.69,0.84-6.14-.69-12.22-0.55-18.35,0.06-2.5.27-4.25,3-5.59a22.59,22.59,0,0,0,7.52-6.3c1.71-2.18,2.2-4.6.91-6.93-1.58-2.85-4.24-2.13-6.89-1.56a27,27,0,0,0-8.39,3.46,73.57,73.57,0,0,0-9.82,7.64c-11.86,10.31-25.93,16-40.32,21.14-27.9,10-55.87,19.86-83.81,29.78" transform="translate(0 45.98)" style="fill:none;stroke:#898989;stroke-miterlimit:10;stroke-width:4px"/><path d="M1693.65,915.51c-0.86,3.84,1.35,6.17,4,8.45,8.25,7.21,9.18,13.17,5.41,21.78a35.51,35.51,0,0,0-2.72,18.74,52.82,52.82,0,0,0,1.76,8.57c6.35,22,6,44.47,3.44,66.94-1.27,11.29-2,22.41-.13,33.76,1.09,6.77.2,13.86,0.2,20.8" transform="translate(0 45.98)" style="fill:none;stroke:#898989;stroke-miterlimit:10;stroke-width:4px"/><path d="M1673.82,970.07c3.87,8.51,4.7,17.64,5.45,26.78,1.47,17.87-2,35.26-5.58,52.55-3.07,14.95-5.15,29.88-4.34,45.16" transform="translate(0 45.98)" style="fill:none;stroke:#898989;stroke-miterlimit:10;stroke-width:4px"/><path d="M1149.76,410.06c0.6,22.78,1.31,44.74,4.14,67.41,2.13,11.33,8.5,21.25,16.53,28.89" transform="translate(0 45.98)" style="fill:none;stroke:#898989;stroke-miterlimit:10;stroke-width:4px"/><path d="M1534,902.62c1.49-.83,3-1.64,4.46-2.48,1.74-1,3.39-2.07,3-4.46-0.36-2.08-1-3.64-3.43-4.56-4.9-1.89-10.06-2-15.09-2.73-0.6-.09-1.19-0.19-1.78-0.3a36.27,36.27,0,0,0-8.42-.5c-5.65.23-11.26,1.16-16.92,0.33a4.54,4.54,0,0,0-.7,0c-2.3,0-4.85,1.49-7.2,2.37-13,4.82-25.08,11.67-37.67,17.4-0.88.4-1.74,0.81-2.6,1.25-8.64,4.3-16.51,10-24.67,15.11-15.82,9.9-31.31,20.34-47.2,30.12-12.06,7.43-24,4.73-35.09-2.51-2.56-1.66-5.55-3.27-7-6.33" transform="translate(0 45.98)" style="fill:none;stroke:#898989;stroke-miterlimit:10;stroke-width:4px"/><path d="M1725.4,942.79c-1.14-5.61-2.07-11.17-4.8-16.46-2.31-4.48-7.47-6.63-8.65-11.8-0.23-1-1.42-1.23-2.42-1a26,26,0,0,1-7,.41,38.92,38.92,0,0,0-6.36.1c-0.86.11-1.73,0.2-2.59,0.26a57.59,57.59,0,0,1-16.3-1.61l-1.61-.33c-5-1-10.17-1.37-15.22-2.27l-6-1.08c-10-1.81-20.08-3.62-30.19-4.7-1.59-.17-3.16-0.42-4.71-0.71-3.41-.63-6.75-1.42-10.16-1.86-8.15-1.06-14.12,3.85-18.19,9.88-10.93,16.22-11,39.82-1,54.9,4.22,6.35,9.64,11.69,18.26,11.46a8,8,0,0,0,2,0,82.91,82.91,0,0,1,9.17-2.1c9.78-1.69,19.76-2,29.56-3.55,8.13-1.28,16.48-2.37,24.68-3.34a180.94,180.94,0,0,0,25.36-4.39" transform="translate(0 45.98)" style="fill:none;stroke:#898989;stroke-miterlimit:10;stroke-width:4px"/><path d="M1185.24,400.53c0.11,15.5.75,37,1.9,52.4,1,12.88,1.35,25.15-4.35,37.11a57.56,57.56,0,0,1-11.87,16.32" transform="translate(0 45.98)" style="fill:none;stroke:#898989;stroke-miterlimit:10;stroke-width:4px"/><path d="M1169.44,979.49a19.07,19.07,0,0,0,2.5,2.95c6.83,5.36,8.37,12.84,8.39,20.86q0.1,33.23,0,66.46c0,3.15-.3,6.28-0.47,9.42" transform="translate(0 45.98)" style="fill:none;stroke:#898989;stroke-miterlimit:10;stroke-width:4px"/><path d="M1611.82,827.23c11.31-13.12,12.64-38.58,2.47-47.62-4.23.19-6.1,2.82-8,6.39-6.06,11.08-5,32.64,3.6,41.23" transform="translate(0 45.98)" style="fill:none;stroke:#898989;stroke-miterlimit:10;stroke-width:4px"/><path d="M1609.84,830.21c-8.72,10.9-26.14,11.49-34.31,5.58-3-2.14-5-4.9-8-7l-0.31-.22c0.3-.52.59-1,0.87-1.57a58.89,58.89,0,0,0,7.51-31,29,29,0,0,0-2.39-10.45c-1.13-2.61-2.78-4.19-5.53-4.4s-3.69,2-5,3.9c-3,4.43-3.32,9.66-3.2,14.42,0.26,9.67.72,19.64,8.21,27.28" transform="translate(0 45.98)" style="fill:none;stroke:#898989;stroke-miterlimit:10;stroke-width:4px"/><path d="M1443.45,952.21c1,1.71.74,3.61,0.74,5.45q0,27.28,0,54.56c1.43,1.45,3.26,1,5,1,7.28,0,14.54,0,21.82,0,1.7,0,3.53-.47,5,1" transform="translate(0 45.98)" style="fill:none;stroke:#898989;stroke-miterlimit:10;stroke-width:4px"/><path d="M1524,775.16a77.54,77.54,0,0,1,2.51,17.36c0.26,9.43-.66,18.86,1.32,28.29,1.75,8.3,6.09,13.91,14,16.25,8.12,2.4,15.56.62,21.81-5.36,1.16-1.11,2.07-2.59,3.81-3l0.14,0" transform="translate(0 45.98)" style="fill:none;stroke:#898989;stroke-miterlimit:10;stroke-width:4px"/><path d="M1151.09,1058.34a32.29,32.29,0,0,1-12.41-1.94c-5.24-1.91-7.07-5.68-4.92-10.94,1.51-3.7,3.56-7.19,4.87-10.95,2.54-7.28-.41-13.93-7.88-18.31a14.68,14.68,0,0,0-18.33,2.47c-4.14,4.31-6.94,9.49-9.47,14.85a4.53,4.53,0,0,0,.23,4.48h4.65c1.58,6.79-1.22,6.37,10,6.45" transform="translate(0 45.98)" style="fill:none;stroke:#898989;stroke-miterlimit:10;stroke-width:4px"/><path d="M1109.43,1068.26a8.23,8.23,0,0,0,4,1c12.23-.06,24.47,0,36.7-0.06a12.69,12.69,0,0,0,2.48-.6v-71h-71v71.66c8.05,0,16,.57,23.92-0.2a8.06,8.06,0,0,0,3.07-.94c3.26-1.76,5.25-5.54,7.64-8.36-1.09-3.83-4.15-4.26-6.74-4.78-2.38-.47-2.35-2.17-2.35-3.58s1.3-2.3,2.87-2c4.73,1,7.35-1.18,9.07-4.39a22.71,22.71,0,0,0,1.25-2.85c1.17-3.18,3.35-6.41,1.58-10.13" transform="translate(0 45.98)" style="fill:none;stroke:#898989;stroke-miterlimit:10;stroke-width:4px"/><path d="M1654.48,972.55c1.1,6.92.29,13.89,0.47,20.83,0.13,5.12-.13,10.26.08,15.37,0.14,3.41-1.11,4.57-4.52,4.53-12.39-.15-24.79-0.06-37.19-0.06-2,0-4.1-.16-6,1" transform="translate(0 45.98)" style="fill:none;stroke:#898989;stroke-miterlimit:10;stroke-width:4px"/><path d="M1525,928.9c2.61,6.26-.86,10.29-8.42,9.39-8.13-1-16.22-2.25-24.31-3.44-13.81-2-26.45.85-38.22,8.39-13.57,8.69-25.35,19.57-37.67,29.8-12.9,10.72-26.14,20.69-43.12,24.41-11.48,2.51-21.89-.34-32.26-4.56-15-6.09-25.75-17.54-36.7-28.77" transform="translate(0 45.98)" style="fill:none;stroke:#898989;stroke-miterlimit:10;stroke-width:4px"/><path d="M1019.16,439.4c1.2,0.91,1,2.22,1,3.47-0.91,25.54-1.64,51.1-6,76.38-0.33,1.92-.52,3.92-2,5.45" transform="translate(0 45.98)" style="fill:none;stroke:#898989;stroke-miterlimit:10;stroke-width:4px"/><path d="M1058.84,902.12c3.59,1.49,5.7,4.94,9.35,6.6a33.26,33.26,0,0,0,14.95,3.26c5.55-.16,10.53-5.7,10.39-11.35-0.17-6.24-4.07-10.65-10.39-10.78-10.52-.22-18.73,3.46-24.76,11.94a40.12,40.12,0,0,0-2.94,4.83c-5.4,10.37-2.45,23.73,4.39,30.21" transform="translate(0 45.98)" style="fill:none;stroke:#898989;stroke-miterlimit:10;stroke-width:4px"/><path d="M1619.26,905.1c2.54,5.53,7.16,9.69,9.09,15.82,5.83,18.45,4.11,35.45-7.59,51.14-0.57.77-1,1.64-1.5,2.47" transform="translate(0 45.98)" style="fill:none;stroke:#898989;stroke-miterlimit:10;stroke-width:4px"/><path d="M1151.09,1007.76h-68.94" transform="translate(0 45.98)" style="fill:none;stroke:#898989;stroke-miterlimit:10;stroke-width:4px"/><path d="M1801.77,514.29c0.12,5.7-3.73,9.15-7.5,12.33-6.36,5.37-13.72,8.25-22.27,7a2.68,2.68,0,0,1-1,0,11.61,11.61,0,0,0-7.48-2.93,26.25,26.25,0,0,0-7.74,1.3c-1.54.43-3.09,0.87-4.63,1.19a214.34,214.34,0,0,0-21.29,5.07c-1.34.43-2.7,0.78-4.06,1.11a88.36,88.36,0,0,0-9.44,2.54,9.42,9.42,0,0,1-1.58.41c-3.08.53-6.47-.25-9.8,0.6-4.46,1.12-9,2.08-13.46,3-9.93,2-19.91,3.7-29.73,6.26l-0.58.15c-5.45,1.4-11.38,2.7-17.19,2.59-1.81,0-3.6,0-5.38.13-14.06.87-27.32,5.82-41,8.47l-2.2.4" transform="translate(0 45.98)" style="fill:none;stroke:#898989;stroke-miterlimit:10;stroke-width:4px"/><path d="M1066.28,1015.2c0.28,21.66-.78,43.33,1,65" transform="translate(0 45.98)" style="fill:none;stroke:#898989;stroke-miterlimit:10;stroke-width:4px"/><path d="M1731.35,525.2c1.57-2,4.31-3.44,4.81-6a5.24,5.24,0,0,0-.35-2.93c-0.4-1-.32-2.47-1.49-2.94-2.83-1.14-5.07-3.62-7.81-4.92a7.87,7.87,0,0,0-4.57-.77c-2.76.38-5.29-.58-7.93-0.84-12.88-1.27-21.07,6.53-28.69,15-4.56,5.07-8.25,10.92-12.54,16.24a8.58,8.58,0,0,0-1.92,4.51" transform="translate(0 45.98)" style="fill:none;stroke:#898989;stroke-miterlimit:10;stroke-width:4px"/><path d="M1270.61,406.86c0,4-.57,9.84,2.25,13.16,1.32,1.55,3.42,2.34,5.12,3.39q2.92,1.79,5.69,3.8a107.46,107.46,0,0,1,10.41,8.73c3,2.83,6,7.34,9.75,8.93" transform="translate(0 45.98)" style="fill:none;stroke:#898989;stroke-miterlimit:10;stroke-width:4px"/><path d="M1655,852q0,26.79,0,53.56a19.69,19.69,0,0,1-.47,3" transform="translate(0 45.98)" style="fill:none;stroke:#898989;stroke-miterlimit:10;stroke-width:4px"/><path d="M1523,887.24c-1.57-5-5.19-8.66-7.93-12.9-8-12.45-16-24.94-23.91-37.29a14.89,14.89,0,0,0-6.56,3c2.54,6.23,6.65,11.38,10.17,16.87,5.09,7.94,9.57,16.26,14.93,24,0.77,1.11,1.54,2.21,2.35,3.29,0.46,0.61.37,1.62,0.54,2.45" transform="translate(0 45.98)" style="fill:none;stroke:#898989;stroke-miterlimit:10;stroke-width:4px"/><path d="M1145.14,1085.13a19.85,19.85,0,0,0-15.38-6c-4,.18-7.93.18-11.89,0a19.85,19.85,0,0,0-15.38,6" transform="translate(0 45.98)" style="fill:none;stroke:#898989;stroke-miterlimit:10;stroke-width:4px"/><path d="M1697.62,843.6a6.65,6.65,0,0,1-1.24,3.77c-1.74,2.26-5,2.64-7.71,3.05-9.51,1.46-19.16.22-28.74,0.66a17.56,17.56,0,0,1-4.65-.37c-5.49-1.23-8.5-5.26-10.21-10.1a9.25,9.25,0,0,1-.5-2.54c-0.4-6.38,4.88-14.15,11.06-15.62,0.28-.07.55-0.12,0.83-0.16a58.83,58.83,0,0,1,6.48-.55c2.78-.1,5.57,0,8.35.07,5.8,0.24,11.6.72,17.4,0.54,0.81,0,1.65.92,2.48,1.42" transform="translate(0 45.98)" style="fill:none;stroke:#898989;stroke-miterlimit:10;stroke-width:4px"/><path d="M1580.08,910.8c-5.79,12.32-11.76,24.55-17.15,37-0.77,1.79-4.32,2.94-2.2,5.86" transform="translate(0 45.98)" style="fill:none;stroke:#898989;stroke-miterlimit:10;stroke-width:4px"/><path d="M1708,811.36c-3.4-2.95-7.34-1.18-10.9-.86a52.82,52.82,0,0,0-21.39,6.21c-1.92,1.08-3.53,2.06-4.41,4.07" transform="translate(0 45.98)" style="fill:none;stroke:#898989;stroke-miterlimit:10;stroke-width:4px"/><path d="M1726.39,818.8c-14.13,1.49-25.64,8.24-35.71,17.85" transform="translate(0 45.98)" style="fill:none;stroke:#898989;stroke-miterlimit:10;stroke-width:4px"/><path d="M1722.92,914.52a6.64,6.64,0,0,1,3.39-1,6.75,6.75,0,0,1,4.05,1.49,5.74,5.74,0,0,1,1.46,1c6.43,9.56,16.85,8.41,26.31,9.91,5.79,0.92,11.58,2,17.36,3" transform="translate(0 45.98)" style="fill:none;stroke:#898989;stroke-miterlimit:10;stroke-width:4px"/><path d="M1508.17,903.11c7.3-1.28,14.59,0,21.8.71,2.31,0.21,4.33,1.66,6.06,3.44a32.55,32.55,0,0,1,2.78,3.37c4.66,6.34,8.77,13.11,12.94,19.79,0.63,1,2.27,1.82,1.54,3.43a9.88,9.88,0,0,0-.91,5.82c0.76,4.48,4.9,7.69,7.37,11.54" transform="translate(0 45.98)" style="fill:none;stroke:#898989;stroke-miterlimit:10;stroke-width:4px"/><path d="M1729.36,827.73c-10.95,2.44-20.63,7.56-29.77,13.87a7.78,7.78,0,0,1-2.25,1.13c-2.47.75-4.45-.45-5.59-3.62-0.7-2-2.3-2.71-3.57-3.92-2.15-2-2.13-4.24-.47-6.45a43,43,0,0,1,3.93-4.51c4.93-4.93,10.85-8.68,16.69-12.38l0.82-.52c2.66-1.69,6.81-1,10.28-1.45" transform="translate(0 45.98)" style="fill:none;stroke:#898989;stroke-miterlimit:10;stroke-width:4px"/><path d="M1755.65,520.74c-0.6,1.62-1.85,2.08-3.45,2.54q-9.69,2.83-19.47,5.36-7,1.81-13.9,3.46c-3.44.83-6.95,1.65-10.47,2.44-4.53,1-9.1,2-13.64,2.91-6.45,1.28-12.93,3.4-19.41,5.09l-4.18,1.08c-9.51,2.49-19,5-28.57,7.29-1.76.43-3.28,0.68-4,2.54" transform="translate(0 45.98)" style="fill:none;stroke:#898989;stroke-miterlimit:10;stroke-width:4px"/><path d="M1611.82,830.21c5.91,5.88,13.3,7.79,21.32,7.93,3.47,0.06,6.94,0,10.41,0" transform="translate(0 45.98)" style="fill:none;stroke:#898989;stroke-miterlimit:10;stroke-width:4px"/><path d="M1720.44,905.59c1.4,2.51.09,5.67,1.2,7.83,0.24,0.47.49,0.93,0.76,1.4a29.22,29.22,0,0,0,4.32,5.81c5.71,5.89,7.76,13.72,9.09,21.67" transform="translate(0 45.98)" style="fill:none;stroke:#898989;stroke-miterlimit:10;stroke-width:4px"/><path d="M1675.8,911.54a8.14,8.14,0,0,1,6-4.41c5.89-1.08,11.7-2.74,17.87-1.63a9.9,9.9,0,0,1,2.34.67c1.53,0.72,2,2,1.14,4.39a9.71,9.71,0,0,0-.6,3.39,8.52,8.52,0,0,0,3,6.1c6,5.88,8.58,13.42,9,21.75" transform="translate(0 45.98)" style="fill:none;stroke:#898989;stroke-miterlimit:10;stroke-width:4px"/><path d="M1579.09,911.3c-5.23-1.61-10.58-.45-15.88-0.71-3.79-.18-7.6,0-11.41,0" transform="translate(0 45.98)" style="fill:none;stroke:#898989;stroke-miterlimit:10;stroke-width:4px"/><path d="M1732.34,527.19a3.36,3.36,0,0,0-1.79-1.94,10.38,10.38,0,0,0-2.15-.66c-5-1.15-9.85-2.83-14.79-4.19l-2.13-.56c-1.69-.43-4.14-0.85-5.35.49-4.47,4.94-10.24,9.05-11.49,16.29" transform="translate(0 45.98)" style="fill:none;stroke:#898989;stroke-miterlimit:10;stroke-width:4px"/><path d="M1533,920c4.08,2.38,5.43,6.84,8,10.38,2.72,3.76,4.21,9.12,10.36,9" transform="translate(0 45.98)" style="fill:none;stroke:#898989;stroke-miterlimit:10;stroke-width:4px"/><path d="M1740.77,924.44c1.08,5.41,3.59,10.33,4.74,15.81,1.48,7,.16,13.13-2.24,19.41a33.78,33.78,0,0,0-1,4" transform="translate(0 45.98)" style="fill:none;stroke:#898989;stroke-miterlimit:10;stroke-width:4px"/><path d="M1762.09,521.24a1,1,0,0,0,.48,0,21.94,21.94,0,0,1,4.92-5.7c5.36-4.26,12-4.38,19.37-1.67,4.53,1.66,8.84.39,13.23,0l1.18-.09c1.32-.07,1.84-1.42,2.49-2.44" transform="translate(0 45.98)" style="fill:none;stroke:#898989;stroke-miterlimit:10;stroke-width:4px"/><path d="M1757.63,519.75a6.64,6.64,0,0,1,1-2c2.4-2.2,3.5-4.92,2.38-7.93-1.41-3.8-4.77-4.22-8.36-4-2.83.16-5.65,0.3-8.48,0.43-4.29.2-8.56,0.38-12.84,0.58a5.42,5.42,0,0,0-3.47,1.49" transform="translate(0 45.98)" style="fill:none;stroke:#898989;stroke-miterlimit:10;stroke-width:4px"/><path d="M1512.63,914.52c4.19,1.37,8.58,1.5,12.9,1.9a13,13,0,0,1,4.93,1.21,4.65,4.65,0,0,1,1.49,1.22A10.78,10.78,0,0,1,1532,920c0.09,5.29-3.17,8.11-7.47,7.87s-8.78.48-12.93-1.4a2.93,2.93,0,0,0-1.47.45" transform="translate(0 45.98)" style="fill:none;stroke:#898989;stroke-miterlimit:10;stroke-width:4px"/><path d="M1715,543.05c-4.17,5.72-10.56,7.24-16.89,8.25a5.49,5.49,0,0,1-6.42-4.77" transform="translate(0 45.98)" style="fill:none;stroke:#898989;stroke-miterlimit:10;stroke-width:4px"/><path d="M1190.76,1084.14c-3-3.41-6.84-4.73-11.41-4.52-5,.23-9.93.23-14.88,0-4.57-.21-8.36,1.11-11.41,4.52" transform="translate(0 45.98)" style="fill:none;stroke:#898989;stroke-miterlimit:10;stroke-width:4px"/><path d="M1508.17,881.29c-4.51,1.2-9.53,1.34-12.4,6" transform="translate(0 45.98)" style="fill:none;stroke:#898989;stroke-miterlimit:10;stroke-width:4px"/><path d="M1713.49,521.73c-1.89,3.76-5.34,6.79-5.45,11.41" transform="translate(0 45.98)" style="fill:none;stroke:#898989;stroke-miterlimit:10;stroke-width:4px"/><path d="M1726.88,913a19.28,19.28,0,0,0,2-2.49c1.63-2.9.18-6.64-2.93-6.25a44.06,44.06,0,0,1-5.47.28c-6,0-12.05-.68-17.87,1.52" transform="translate(0 45.98)" style="fill:none;stroke:#898989;stroke-miterlimit:10;stroke-width:4px"/><path d="M1746.22,516.77c2.71,2.53,6.45,2.15,9.68,3.16l0.31,0.1,1.19,0.41c2.81,0.95,4.17,1.4,4.94,2.65,0.68,1.1.9,2.83,1.23,6.08" transform="translate(0 45.98)" style="fill:none;stroke:#898989;stroke-miterlimit:10;stroke-width:4px"/><path d="M1534.95,908.07a13,13,0,0,1-4,9.42" transform="translate(0 45.98)" style="fill:none;stroke:#898989;stroke-miterlimit:10;stroke-width:4px"/><path d="M1744.24,507.35c1,2.39,3.08,4.36,2,7.45a16.16,16.16,0,0,1-.68,1.71c-1.4,2.89-3.44,3.46-8.79,2.74" transform="translate(0 45.98)" style="fill:none;stroke:#898989;stroke-miterlimit:10;stroke-width:4px"/><path d="M1445.68,900.63c2,2.17.18,5.12,1.49,7.44" transform="translate(0 45.98)" style="fill:none;stroke:#898989;stroke-miterlimit:10;stroke-width:4px"/><path d="M1127.28,1027.1a2.78,2.78,0,0,0-1,.51c-2.58,3.29-5.73,4.86-9.94,3.46" transform="translate(0 45.98)" style="fill:none;stroke:#898989;stroke-miterlimit:10;stroke-width:4px"/><path d="M1073.72,1087.11c-1.57-1.72-4,1.06-5.45-1" transform="translate(0 45.98)" style="fill:none;stroke:#898989;stroke-miterlimit:10;stroke-width:4px"/><path d="M1172.41,1096l3.47,0.5" transform="translate(0 45.98)" style="fill:none;stroke:#898989;stroke-miterlimit:10;stroke-width:4px"/><path d="M1481.88,794c-5.48,1.37-10.07,3.25-11.56,9.88-1.54,6.89.38,12.4,7.1,15.9a13.22,13.22,0,0,0,16.86-4c3.69-4.78,3.21-12.38-1-16.87-3-3.19-6.47-5.1-10.92-4.94" transform="translate(0 45.98)" style="fill:none;stroke:#898989;stroke-miterlimit:10;stroke-width:4px"/><path d="M1549.33,864.43a2.42,2.42,0,0,0-2.46,2.48c-0.06,4.46,0,8.93,0,13.89h81.33c5.45,0,5.45,0,5.45-5.45,0-3.31,0-6.62,0-10.91h-83.81" transform="translate(0 45.98)" style="fill:none;stroke:#898989;stroke-miterlimit:10;stroke-width:4px"/><path d="M1607.36,911.54c-9.63,3.11-15.74,12.15-16.52,22.31-0.67,8.76,0,17,4.09,24.82a18.53,18.53,0,0,0,7,7.45c5.79,3.54,11.73,1.76,16.9-5,8.25-10.76,7.88-31.67,0-42.71-2.81-4-6.6-5.74-11-6.9" transform="translate(0 45.98)" style="fill:none;stroke:#898989;stroke-miterlimit:10;stroke-width:4px"/><path d="M1467,951.22a2,2,0,0,0-2,2c0,7.77,0,15.54,0,23.8,6.94,0,13.39-.06,19.84,0,2.59,0,3-1.34,3-3.5-0.07-6.28-.15-12.57,0-18.84,0.09-3.12-1.47-3.56-4-3.51-5.45.11-10.91,0-16.36,0" transform="translate(0 45.98)" style="fill:none;stroke:#898989;stroke-miterlimit:10;stroke-width:4px"/><circle cx="1174.37" cy="106.51" r="4.94" style="fill:none;stroke:#898989;stroke-miterlimit:10;stroke-width:4px"/><circle cx="1503.79" cy="301.32" r="4.94" style="fill:none;stroke:#898989;stroke-miterlimit:10;stroke-width:4px"/><circle cx="1037.99" cy="671.24" r="4.94" style="fill:none;stroke:#898989;stroke-miterlimit:10;stroke-width:4px"/><circle cx="1384.32" cy="827.11" r="4.94" style="fill:none;stroke:#898989;stroke-miterlimit:10;stroke-width:4px"/><circle cx="1530.98" cy="617.9" r="4.94" style="fill:none;stroke:#898989;stroke-miterlimit:10;stroke-width:4px"/><circle cx="1705.31" cy="708.07" r="4.94" style="fill:none;stroke:#898989;stroke-miterlimit:10;stroke-width:4px"/><circle cx="1828.32" cy="999.69" r="4.94" style="fill:none;stroke:#898989;stroke-miterlimit:10;stroke-width:4px"/><circle cx="1988.83" cy="297.72" r="4.94" style="fill:none;stroke:#898989;stroke-miterlimit:10;stroke-width:4px"/><path d="M1585.72,580.74h0c7.21-10.24,9.63-14.09,11.93-17.25,2.69-3.7,5.24-6.45,15.1-17.35,11.52-12.73,24.07-24.55,35.24-37.57,11.63-13.55,22.46-27.95,29.78-44.37,3.46-7.77,3.54-16.65,3.92-25.22,0.5-11-.15-21.76-4.55-32.07a52.71,52.71,0,0,0-15.45-20.71c-3.12-2.53-6.27-3-9.38-.34-2.93,2.52-2.13,5.43-.57,8.5a29.87,29.87,0,0,0,4.69,6.19c9.2,10.41,11.76,22.51,9.51,36a2,2,0,0,0,0,.21c-0.39,2.76.55,5.72,0.79,8.59,0.27,3,1.64,6.21-.86,9" transform="translate(0 45.98)" style="fill:none;stroke:#898989;stroke-miterlimit:10;stroke-width:4px"/><path d="M1664.95,436.65c-4.16-2.88-6.46-7.45-8.07-11.72-3.12-8.3-15.72-16.51-22-21.78" transform="translate(0 45.98)" style="fill:none;stroke:#898989;stroke-miterlimit:10;stroke-width:4px"/><path d="M1591.28,443.59c1.59,7.95,9.29,9.83,14.53,13.89a88.54,88.54,0,0,1,8.37,7.57c3,3,3.14,8.61-.28,12.43-4,4.51-8.58,8.69-13.71,11.34-18.4,9.54-38.65,34.22-44.48,54.24" transform="translate(0 45.98)" style="fill:none;stroke:#898989;stroke-miterlimit:10;stroke-width:4px"/><path d="M1649,473c-4.13-14.84-13.77-26-24.6-36.24-3-2.86-6.44-5.32-9.67-8" transform="translate(0 45.98)" style="fill:none;stroke:#898989;stroke-miterlimit:10;stroke-width:4px"/><path d="M1604.64,439.14c-5,.5-9.83,2.71-14.37,3.17" transform="translate(0 45.98)" style="fill:none;stroke:#898989;stroke-miterlimit:10;stroke-width:4px"/><path d="M1658.56,466.23c1.53-7.32-2.95-13.09-5.69-18.94a35.29,35.29,0,0,0-9.18-11.63c-5.43-4.73-11.87-8.47-17.53-12.94a5.94,5.94,0,0,0-7.95,0,75.72,75.72,0,0,0-10.49,10.82c-1.61,2.06-2.27,3.75-2,5.3s1.74,3.06,4.25,4.58c8.69,5.23,14.38,13.07,19.94,21.19,3.06,4.47,3,10.09,5.87,14.57" transform="translate(0 45.98)" style="fill:none;stroke:#898989;stroke-miterlimit:10;stroke-width:4px"/><path d="M1634.87,403.15c-3.46,1.84-5.36,3.95-5.67,6.27s1,4.92,4,7.66a68.33,68.33,0,0,1,9.51,11.12c1.54,2.18,4.09,4.14,2.08,7.35" transform="translate(0 45.98)" style="fill:none;stroke:#898989;stroke-miterlimit:10;stroke-width:4px"/><path d="M1098.14,124.54c-0.4,7.62-6,22.87-6.86,30.7a20.94,20.94,0,0,0,9.22,19.58c2.34,1.63,21.3,5.81,21.71,8.18,2.26,12.75,1.59,20.54-1.24,34.18" transform="translate(0 45.98)" style="fill:none;stroke:#898989;stroke-miterlimit:10;stroke-width:4px"/></g><rect y="45.98" width="1920" height="1079.12" style="fill:none"/></svg>